<?xml version="1.0" standalone="no"?>
<!DOCTYPE svg PUBLIC "-//W3C//DTD SVG 20010904//EN"
 "http://www.w3.org/TR/2001/REC-SVG-20010904/DTD/svg10.dtd">
<svg version="1.0" xmlns="http://www.w3.org/2000/svg"
 width="2284.000000pt" height="866.000000pt" viewBox="0 0 2284.000000 866.000000"
 preserveAspectRatio="xMidYMid meet">

<g transform="translate(0.000000,866.000000) scale(0.100000,-0.100000)"
fill="#1edcdc" stroke="none">
<path d="M5150 6550 c0 -5 -6 -7 -13 -4 -7 2 -24 -8 -37 -22 -14 -15 -18 -24
-10 -19 8 4 -1 -8 -20 -27 -19 -19 -41 -32 -49 -30 -8 3 -12 1 -9 -4 4 -5 -30
-8 -80 -7 -48 1 -87 2 -87 3 0 1 -28 3 -63 4 -34 0 -62 -2 -62 -6 0 -4 -7 -5
-15 -2 -8 4 -15 1 -15 -6 0 -6 -4 -8 -10 -5 -5 3 -10 1 -10 -5 0 -6 -4 -8 -10
-5 -5 3 -10 1 -10 -6 0 -7 -3 -9 -7 -6 -3 4 -12 -1 -20 -11 -10 -11 -12 -12
-8 -2 4 8 -3 4 -15 -10 -12 -14 -19 -18 -15 -10 4 8 -3 4 -16 -10 -13 -14 -20
-19 -15 -10 4 8 -12 -7 -37 -35 -25 -27 -49 -50 -54 -50 -4 0 -118 -110 -253
-245 -136 -135 -205 -207 -155 -160 l90 85 -90 -92 -90 -93 -1027 0 -1028 0
-2 243 c-2 133 -2 268 -1 300 1 33 -3 57 -9 57 -6 0 -8 10 -4 25 4 15 2 25 -4
25 -6 0 -9 3 -7 8 2 4 -6 16 -18 27 -17 16 -35 20 -88 20 -37 0 -67 -4 -67 -9
0 -4 -9 -6 -20 -3 -11 3 -20 1 -20 -5 0 -6 -7 -8 -15 -4 -8 3 -15 1 -15 -5 0
-6 -4 -8 -8 -5 -9 6 -48 -35 -44 -46 1 -5 -3 -8 -9 -8 -5 0 -7 -4 -4 -10 3 -5
1 -10 -5 -10 -6 0 -8 -4 -5 -10 3 -5 1 -10 -5 -10 -7 0 -9 -8 -5 -20 4 -12 2
-20 -5 -20 -6 0 -8 -10 -4 -24 3 -13 1 -27 -5 -30 -5 -4 -7 -22 -4 -41 4 -24
2 -35 -6 -35 -9 0 -10 -19 -5 -70 5 -53 4 -70 -6 -70 -9 0 -11 -13 -6 -50 5
-35 3 -50 -5 -50 -7 0 -9 -9 -5 -26 5 -18 3 -24 -5 -19 -8 5 -9 1 -4 -14 4
-13 2 -21 -5 -21 -6 0 -10 -3 -8 -7 5 -10 -49 -62 -56 -55 -4 3 -6 0 -6 -7 0
-8 -7 -10 -21 -6 -15 5 -19 4 -14 -4 5 -8 -1 -10 -19 -5 -17 4 -26 2 -26 -5 0
-8 -15 -10 -50 -5 -37 5 -50 3 -50 -6 0 -10 -17 -11 -70 -6 -51 5 -70 4 -70
-5 0 -8 -13 -9 -45 -5 -32 5 -45 4 -45 -4 0 -8 -9 -10 -25 -6 -16 4 -25 2 -25
-5 0 -6 -7 -9 -15 -5 -18 7 -47 -3 -40 -14 3 -4 -2 -11 -11 -14 -10 -4 -13 -2
-8 7 4 6 -9 -4 -29 -25 -26 -25 -35 -41 -30 -54 5 -12 3 -15 -6 -9 -10 5 -11
2 -6 -14 3 -11 3 -21 -2 -21 -4 0 -8 -32 -8 -72 0 -62 3 -75 23 -95 13 -13 28
-21 33 -18 5 4 9 2 9 -3 0 -5 11 -7 25 -4 14 2 25 0 25 -5 0 -6 24 -10 52 -9
29 0 163 0 296 -2 l244 -2 -4 -850 c-2 -486 -7 -850 -12 -850 -5 0 -6 -33 -2
-75 5 -54 4 -75 -5 -75 -8 0 -10 -12 -5 -40 4 -25 2 -40 -4 -40 -6 0 -8 -10
-4 -25 4 -16 2 -25 -6 -25 -8 0 -10 -9 -6 -26 5 -18 3 -24 -5 -19 -8 5 -9 1
-4 -15 5 -16 4 -20 -5 -15 -9 5 -10 2 -5 -14 5 -15 -1 -28 -22 -48 -15 -14
-21 -23 -13 -19 8 4 -12 -18 -45 -49 -33 -31 -53 -54 -45 -50 8 3 2 -6 -15
-20 -16 -15 -23 -24 -15 -20 8 4 4 -3 -10 -14 -14 -11 -21 -21 -16 -21 6 0 1
-7 -10 -16 -10 -8 -12 -13 -4 -9 8 4 4 -3 -10 -15 -14 -12 -18 -19 -10 -15 8
4 6 -1 -4 -9 -11 -9 -16 -16 -11 -16 5 0 0 -7 -11 -16 -10 -8 -13 -12 -6 -9
11 6 12 3 3 -14 -7 -11 -17 -21 -23 -21 -6 0 -8 -3 -5 -7 4 -3 -1 -12 -11 -20
-9 -8 -11 -11 -4 -8 10 5 9 -1 -2 -24 -9 -17 -21 -31 -27 -31 -6 0 -7 -4 -4
-10 3 -5 1 -10 -5 -10 -6 0 -8 -4 -5 -10 3 -5 1 -10 -5 -10 -6 0 -8 -4 -5 -10
3 -5 1 -10 -5 -10 -6 0 -8 -4 -5 -10 3 -5 2 -10 -4 -10 -6 0 -18 -14 -27 -31
-9 -18 -11 -28 -4 -24 9 6 9 2 1 -14 -7 -11 -16 -21 -22 -21 -6 0 -8 -4 -5 -9
8 -13 -4 -42 -15 -35 -5 3 -6 -3 -2 -12 4 -12 3 -15 -5 -10 -8 5 -10 1 -5 -10
5 -13 3 -15 -7 -9 -8 5 -11 4 -7 -3 8 -12 -2 -44 -12 -38 -10 7 -73 -123 -66
-135 4 -5 1 -9 -5 -9 -6 0 -9 -4 -6 -9 9 -14 -5 -42 -17 -34 -6 4 -8 0 -4 -10
3 -10 2 -17 -4 -17 -6 0 -7 -4 -4 -10 3 -5 2 -10 -4 -10 -6 0 -7 -7 -4 -17 5
-12 3 -14 -7 -8 -10 6 -12 4 -7 -8 3 -10 2 -17 -4 -17 -6 0 -7 -4 -4 -10 3 -5
2 -10 -4 -10 -6 0 -7 -7 -4 -17 4 -10 2 -14 -4 -10 -12 8 -26 -20 -17 -34 3
-5 1 -9 -5 -9 -6 0 -7 -7 -4 -17 5 -12 3 -14 -7 -8 -10 6 -12 4 -7 -8 3 -10 2
-17 -3 -17 -5 0 -6 -7 -3 -17 5 -12 3 -14 -7 -8 -10 6 -12 4 -7 -8 3 -10 2
-17 -3 -17 -5 0 -6 -7 -3 -17 5 -12 3 -14 -7 -8 -10 6 -12 4 -7 -8 3 -10 2
-17 -3 -17 -5 0 -6 -7 -3 -17 5 -12 3 -14 -7 -8 -10 6 -12 4 -7 -8 3 -10 2
-17 -3 -17 -5 0 -6 -7 -3 -17 5 -11 3 -14 -6 -8 -10 6 -11 2 -6 -15 5 -16 4
-20 -5 -15 -9 5 -10 1 -5 -15 5 -16 4 -20 -5 -15 -9 5 -10 2 -5 -14 4 -13 2
-21 -5 -21 -7 0 -9 -8 -5 -21 5 -15 4 -19 -4 -14 -8 5 -10 -1 -5 -19 4 -16 2
-26 -5 -26 -22 0 -6 -65 23 -95 16 -16 26 -23 22 -15 -6 12 -5 12 6 -1 7 -9
19 -14 27 -11 9 3 11 0 6 -8 -6 -10 -4 -12 8 -7 10 3 17 3 17 -1 0 -4 25 -7
55 -7 30 0 55 4 55 8 0 5 10 5 21 2 16 -5 19 -4 14 6 -6 9 -2 11 13 7 12 -4
22 -2 22 4 0 5 5 6 10 3 6 -3 10 -1 10 5 0 7 7 10 15 6 8 -3 15 -1 15 5 0 6 4
7 10 4 5 -3 10 -1 10 5 0 7 7 10 15 6 8 -3 15 -1 15 5 0 6 5 7 10 4 6 -3 10
-1 10 5 0 7 7 10 15 6 8 -3 15 -1 15 5 0 6 4 7 10 4 5 -3 10 -1 10 5 0 6 4 9
9 6 12 -8 42 4 36 14 -6 10 24 22 36 14 5 -3 9 0 9 6 0 6 5 8 10 5 6 -3 10 -1
10 5 0 6 5 8 10 5 6 -3 10 -1 10 5 0 6 4 9 9 6 12 -8 42 4 36 14 -6 10 24 22
36 14 5 -3 9 0 9 6 0 6 5 8 10 5 6 -3 10 -1 10 5 0 6 4 8 10 5 5 -3 10 -1 10
5 0 6 5 8 10 5 6 -3 10 -1 10 5 0 6 5 8 10 5 6 -3 10 -1 10 5 0 6 5 8 10 5 6
-3 10 -1 10 5 0 6 4 8 10 5 5 -3 10 -1 10 5 0 6 5 8 10 5 6 -3 10 -1 10 5 0 6
5 8 10 5 5 -3 10 -1 10 5 0 6 5 8 10 5 6 -3 10 -1 10 5 0 6 4 8 10 5 5 -3 10
-1 10 5 0 6 5 8 10 5 6 -3 10 -1 10 5 0 6 4 8 10 5 5 -3 10 -2 10 4 0 6 14 18
31 27 18 9 28 11 24 4 -4 -7 6 -5 24 4 17 9 31 21 31 27 0 6 5 7 10 4 6 -3 10
-1 10 5 0 6 5 8 10 5 6 -3 10 -1 10 5 0 6 5 8 10 5 6 -3 10 -1 10 5 0 6 5 8
10 5 6 -3 10 -2 10 4 0 6 14 18 31 27 23 11 29 12 24 2 -3 -7 0 -5 8 4 8 10
17 15 20 11 4 -3 7 0 7 7 0 7 3 10 7 7 3 -4 12 1 20 11 8 9 11 11 8 4 -6 -11
-3 -12 14 -3 11 7 21 16 21 22 0 6 5 7 10 4 6 -3 10 -2 10 4 0 6 10 15 21 22
17 9 20 8 14 -3 -3 -7 0 -5 8 4 8 10 17 15 20 11 4 -3 7 0 7 7 0 7 3 10 7 7 3
-4 12 1 20 11 10 11 12 12 8 2 -4 -8 3 -4 15 10 12 14 19 18 15 10 -4 -8 3 -4
15 10 12 14 19 18 15 10 -4 -8 1 -6 9 4 9 11 16 16 16 11 0 -5 7 0 16 11 8 10
13 12 9 4 -4 -8 3 -4 15 10 12 14 19 18 15 10 -4 -8 5 -1 20 15 14 17 24 23
20 15 -4 -8 18 12 48 44 37 40 58 57 67 51 8 -5 11 -4 7 2 -9 14 18 24 40 16
11 -5 14 -3 8 6 -5 10 -2 11 14 6 13 -4 21 -2 21 5 0 7 8 9 20 5 12 -4 20 -2
20 5 0 8 10 9 30 5 19 -4 30 -3 30 4 0 7 16 8 45 4 31 -4 45 -2 45 6 0 8 20 9
70 5 39 -4 70 -3 70 2 0 5 341 10 805 12 l805 4 2 -159 c2 -87 2 -186 1 -221
-1 -35 2 -62 8 -62 5 0 7 -11 3 -25 -4 -16 -2 -25 6 -25 8 0 10 -9 6 -26 -5
-19 -4 -24 5 -18 9 5 10 2 6 -9 -3 -10 -2 -17 3 -17 5 0 7 -7 4 -15 -4 -8 -1
-15 5 -15 6 0 8 -7 4 -17 -5 -12 -3 -14 7 -8 10 6 12 4 7 -8 -4 -10 -1 -17 5
-17 6 0 8 -3 5 -7 -4 -3 1 -12 11 -20 11 -10 12 -12 2 -8 -8 3 -5 -2 8 -11 12
-9 22 -22 22 -29 0 -7 8 -19 18 -26 16 -13 16 -12 3 6 -7 11 -2 8 12 -7 14
-15 28 -24 31 -21 3 4 6 2 6 -3 0 -5 25 -9 55 -9 30 0 55 4 55 8 0 5 4 6 9 2
5 -3 12 4 16 15 4 11 11 18 16 15 5 -3 6 2 2 11 -5 12 -3 15 6 9 10 -5 11 -2
6 14 -4 13 -2 21 5 21 7 0 9 8 5 20 -4 12 -2 20 5 20 6 0 8 10 4 25 -4 16 -2
25 6 25 9 0 10 11 6 35 -4 19 -3 35 1 35 4 0 9 116 11 257 2 142 4 258 5 260
2 1 118 3 260 5 141 2 257 7 257 11 0 4 16 5 35 1 24 -4 35 -3 35 6 0 8 9 10
25 6 15 -4 25 -2 25 4 0 7 8 9 20 5 12 -4 20 -2 20 5 0 7 8 9 21 5 16 -5 19
-4 14 6 -6 9 -3 11 9 6 9 -4 14 -3 11 2 -3 5 4 12 15 16 11 4 18 11 15 16 -4
5 -3 9 2 9 4 0 8 25 8 55 0 30 -4 55 -9 55 -5 0 -7 3 -3 6 3 3 -6 17 -21 31
-15 14 -18 19 -7 12 18 -13 19 -13 6 4 -7 9 -19 17 -26 17 -7 0 -20 10 -29 23
-9 12 -14 15 -11 7 4 -10 2 -9 -8 2 -8 10 -17 15 -20 11 -4 -3 -7 -1 -7 5 0 6
-7 9 -17 5 -12 -5 -14 -3 -8 7 6 10 4 12 -8 7 -10 -4 -17 -2 -17 4 0 6 -7 9
-15 5 -8 -3 -15 -1 -15 4 0 5 -7 6 -17 3 -11 -4 -14 -3 -9 6 6 9 1 10 -18 5
-17 -4 -26 -2 -26 6 0 8 -9 10 -25 6 -14 -4 -25 -2 -25 3 0 6 -27 9 -62 8 -35
-1 -134 -1 -220 1 l-158 2 0 1028 0 1027 93 90 92 90 -90 -95 c-49 -52 6 -1
123 115 116 115 212 215 212 222 0 6 21 30 48 53 26 23 47 46 47 52 0 5 16 23
35 40 19 16 28 27 20 23 -8 -4 1 8 20 25 19 17 28 29 20 25 -8 -4 -4 3 10 15
14 12 18 19 10 15 -8 -4 -4 3 10 15 14 12 18 19 10 15 -10 -4 -9 -2 2 8 10 8
15 17 11 20 -3 4 -1 7 6 7 7 0 9 5 6 10 -3 6 -1 10 5 10 6 0 8 5 5 10 -3 6 -2
10 4 10 6 0 8 7 5 15 -4 8 -1 15 6 15 10 0 12 20 7 80 -3 44 -1 80 3 80 4 0 6
9 3 20 -3 12 0 20 7 20 7 0 10 7 6 15 -3 8 -1 15 4 15 5 0 7 7 4 15 -4 8 -1
15 5 15 6 0 8 7 4 17 -5 11 -3 14 6 8 10 -6 11 -2 6 15 -5 15 -4 20 4 16 7 -5
11 9 11 43 0 30 -5 51 -11 51 -6 0 -8 9 -4 21 5 16 4 19 -6 14 -9 -6 -11 -3
-6 8 3 10 2 17 -4 17 -6 0 -7 5 -4 10 3 6 2 10 -4 10 -6 0 -15 10 -22 21 -9
17 -8 20 3 14 7 -3 0 6 -17 20 -16 15 -23 24 -15 20 8 -3 2 5 -15 19 -16 14
-26 26 -20 26 5 0 -11 20 -35 45 -24 25 -48 45 -54 45 -5 0 -24 17 -43 38 -19
20 -31 30 -28 22 4 -8 -3 -4 -15 10 -12 14 -19 18 -15 10 4 -10 2 -9 -8 2 -8
10 -17 15 -20 11 -4 -3 -7 -2 -7 4 0 6 -9 9 -20 6 -11 -3 -20 0 -20 6 0 6 -7
11 -15 11 -8 0 -15 -4 -15 -10z m-317 -628 c43 -43 75 -80 73 -83 -3 -3 35
-43 85 -88 l91 -84 -48 -48 c-26 -26 -50 -47 -54 -46 -4 1 -87 -80 -185 -180
-97 -101 -180 -182 -184 -180 -5 1 -91 -82 -191 -186 -100 -103 -185 -185
-189 -183 -4 3 -87 -78 -185 -180 -98 -101 -181 -182 -186 -179 -4 2 -89 -81
-190 -185 -100 -105 -188 -190 -195 -190 -7 0 -61 -52 -120 -115 -59 -63 -111
-113 -115 -110 -4 3 -58 -49 -120 -115 -62 -66 -116 -118 -120 -115 -4 3 -58
-49 -120 -115 -62 -66 -116 -118 -120 -115 -5 3 -52 -42 -106 -100 -53 -58
-103 -105 -110 -105 -6 0 -40 -31 -74 -70 -34 -38 -66 -68 -70 -65 -5 3 -34
-24 -65 -60 -31 -35 -61 -63 -66 -62 -5 1 -25 -16 -45 -38 -19 -22 -33 -33
-29 -25 4 8 -15 -7 -41 -35 -26 -27 -41 -41 -34 -30 7 11 -7 0 -30 -25 -23
-25 -37 -36 -30 -25 7 11 -5 2 -25 -20 -21 -22 -34 -33 -29 -25 5 9 -2 4 -15
-10 -13 -14 -20 -18 -16 -10 3 8 -1 6 -9 -4 -9 -11 -16 -16 -16 -11 0 5 -7 0
-16 -11 -8 -10 -13 -12 -9 -4 4 10 2 9 -8 -2 -8 -10 -17 -15 -20 -11 -4 3 -7
1 -7 -5 0 -6 -7 -9 -15 -6 -8 4 -15 2 -15 -2 0 -5 -18 -9 -40 -9 -27 0 -45 7
-55 20 -9 11 -13 13 -9 5 4 -8 -2 -6 -12 5 -10 11 -28 28 -39 38 -11 11 -13
16 -5 12 13 -6 13 -5 0 7 -17 14 -23 78 -7 78 5 0 7 7 3 15 -3 8 0 15 6 15 6
0 8 3 5 7 -4 3 1 12 11 20 11 10 12 12 2 8 -8 -4 -4 3 10 15 14 12 18 19 10
15 -8 -4 -4 3 10 15 14 12 18 19 10 15 -8 -4 -4 3 10 16 14 13 19 20 10 15 -8
-5 3 9 25 30 23 22 34 35 25 29 -9 -5 9 14 39 44 31 29 47 48 36 41 -11 -7 3
8 30 34 28 25 49 50 48 55 -1 5 42 50 97 101 55 50 99 95 97 99 -1 5 110 117
246 251 136 133 245 245 242 248 -6 6 2074 2092 2085 2092 3 0 40 -35 83 -78z
m-2109 -564 c-5 -8 75 -10 320 -6 205 4 328 2 332 -4 4 -6 30 -7 65 -3 54 6
59 5 52 -11 -5 -13 -3 -15 8 -10 8 4 -33 -38 -91 -94 -58 -55 -104 -104 -103
-109 1 -4 -313 -322 -698 -707 l-699 -699 0 822 0 823 403 3 c221 1 406 3 410
5 5 1 5 -3 1 -10z m1630 -890 c-5 -8 -2 -9 10 -5 16 7 17 2 11 -52 -4 -35 -3
-61 3 -65 6 -4 8 -127 4 -332 -4 -269 -3 -326 8 -319 10 6 12 4 7 -9 -4 -10
-7 -195 -7 -412 l0 -394 -822 0 -823 0 699 699 c385 385 703 698 706 696 4 -2
51 43 104 100 90 96 119 124 100 93z m-2834 -1977 c21 -21 42 -36 46 -32 4 3
4 1 1 -6 -4 -6 0 -18 8 -26 18 -18 20 -37 3 -37 -6 0 -9 -3 -6 -6 7 -6 -32
-49 -45 -49 -4 0 -12 -7 -17 -15 -5 -8 -10 -10 -10 -5 0 6 -7 1 -15 -9 -8 -11
-15 -16 -15 -12 0 4 -24 -5 -53 -21 -28 -16 -63 -28 -76 -28 -21 0 -24 5 -25
38 -1 20 3 37 8 37 4 0 6 7 2 15 -3 8 -1 15 5 15 6 0 7 5 4 10 -3 6 -1 10 5
10 6 0 8 5 5 10 -3 6 -1 10 5 10 6 0 8 5 5 10 -3 6 -1 10 5 10 6 0 8 5 5 10
-3 6 -1 10 5 10 6 0 9 4 6 9 -3 5 1 12 10 15 9 4 14 9 11 12 -8 8 53 64 70 64
8 0 31 -17 53 -39z"/>
<path d="M4845 5890 c27 -27 51 -50 54 -50 3 0 -17 23 -44 50 -27 28 -51 50
-54 50 -3 0 17 -22 44 -50z"/>
<path d="M5032 5695 l28 -29 -42 -43 c-23 -24 -40 -43 -37 -43 3 0 24 19 47
43 l42 43 -32 29 -33 30 27 -30z"/>
<path d="M4670 5283 l-65 -68 68 65 c37 35 67 66 67 67 0 8 -10 -2 -70 -64z"/>
<path d="M4270 4895 c-24 -25 -42 -45 -39 -45 3 0 25 20 49 45 24 25 42 45 39
45 -3 0 -25 -20 -49 -45z"/>
<path d="M3874 4508 l-19 -23 23 19 c21 18 27 26 19 26 -2 0 -12 -10 -23 -22z"/>
<path d="M3469 5303 c-13 -16 -12 -17 4 -4 16 13 21 21 13 21 -2 0 -10 -8 -17
-17z"/>
<path d="M3225 5048 l-70 -73 73 70 c39 38 72 71 72 72 0 8 -11 -2 -75 -69z"/>
<path d="M4329 4443 c-13 -16 -12 -17 4 -4 16 13 21 21 13 21 -2 0 -10 -8 -17
-17z"/>
<path d="M4075 4198 l-70 -73 73 70 c67 64 77 75 69 75 -1 0 -34 -33 -72 -72z"/>
<path d="M6070 4080 l0 -2400 7880 0 7880 0 0 2400 0 2400 -7880 0 -7880 0 0
-2400z m15520 560 l0 -1600 -7640 0 -7640 0 0 1600 0 1600 7640 0 7640 0 0
-1600z"/>
<path d="M15960 5519 c0 -5 -4 -8 -9 -4 -6 3 -31 -15 -56 -41 -26 -25 -41 -43
-33 -39 7 3 4 -1 -6 -9 -11 -9 -16 -16 -11 -16 5 0 0 -7 -11 -16 -10 -8 -12
-13 -4 -9 10 4 9 2 -2 -8 -10 -8 -15 -17 -11 -20 3 -4 1 -7 -6 -7 -7 0 -9 -4
-6 -10 3 -5 1 -10 -5 -10 -6 0 -8 -4 -5 -10 3 -5 1 -10 -5 -10 -6 0 -8 -4 -5
-10 3 -5 1 -10 -5 -10 -6 0 -8 -4 -5 -10 3 -5 1 -10 -5 -10 -6 0 -8 -4 -5 -10
3 -5 2 -10 -4 -10 -6 0 -8 -7 -5 -15 4 -8 1 -15 -6 -15 -6 0 -8 -4 -5 -10 3
-5 1 -10 -5 -10 -6 0 -8 -4 -5 -10 3 -5 1 -10 -5 -10 -7 0 -10 -7 -6 -15 3 -8
1 -15 -5 -15 -6 0 -7 -4 -4 -10 3 -5 1 -10 -5 -10 -7 0 -10 -7 -6 -15 3 -8 1
-15 -4 -15 -5 0 -7 -7 -4 -15 4 -8 1 -15 -6 -15 -6 0 -8 -4 -5 -10 3 -5 1 -10
-5 -10 -7 0 -10 -7 -6 -15 3 -8 1 -15 -4 -15 -5 0 -7 -7 -4 -15 4 -8 1 -15 -5
-15 -6 0 -8 -7 -5 -15 4 -8 1 -15 -5 -15 -6 0 -8 -7 -4 -17 5 -11 3 -14 -6 -8
-10 6 -11 2 -6 -15 5 -16 4 -20 -5 -15 -9 5 -10 1 -5 -15 5 -17 4 -21 -6 -15
-9 6 -11 3 -6 -8 4 -10 2 -17 -4 -17 -6 0 -9 -7 -5 -15 3 -8 1 -15 -5 -15 -6
0 -9 -7 -5 -15 3 -8 1 -15 -4 -15 -5 0 -7 -7 -4 -15 4 -8 1 -15 -5 -15 -6 0
-8 -7 -4 -17 5 -11 3 -14 -6 -8 -10 6 -11 2 -6 -15 5 -17 4 -21 -6 -15 -9 6
-11 3 -6 -8 3 -10 2 -17 -4 -17 -6 0 -8 -9 -4 -21 5 -16 4 -19 -6 -14 -9 6
-11 3 -6 -8 4 -10 2 -17 -4 -17 -6 0 -9 -7 -5 -15 3 -8 1 -15 -4 -15 -5 0 -7
-7 -4 -15 4 -8 1 -15 -5 -15 -6 0 -8 -7 -5 -15 4 -8 1 -15 -5 -15 -6 0 -8 -7
-5 -15 4 -8 1 -15 -6 -15 -6 0 -8 -4 -5 -10 3 -5 1 -10 -5 -10 -7 0 -10 -7 -6
-15 3 -8 1 -15 -5 -15 -6 0 -9 -7 -5 -15 3 -8 1 -15 -4 -15 -5 0 -7 -7 -4 -15
4 -8 1 -15 -5 -15 -6 0 -8 -7 -5 -15 4 -8 1 -15 -5 -15 -6 0 -8 -7 -4 -17 5
-12 3 -14 -7 -8 -10 6 -12 4 -7 -8 4 -10 2 -17 -4 -17 -6 0 -9 -7 -5 -15 3 -8
1 -15 -4 -15 -5 0 -7 -7 -4 -15 4 -8 1 -15 -6 -15 -6 0 -8 -4 -5 -10 3 -5 1
-10 -5 -10 -7 0 -10 -7 -6 -15 3 -8 1 -15 -4 -15 -5 0 -7 -7 -4 -15 4 -8 2
-15 -4 -15 -11 0 -10 -49 1 -68 5 -7 13 -10 18 -7 5 4 9 2 9 -2 0 -5 18 -8 40
-8 22 0 40 4 40 8 0 5 7 7 15 3 8 -3 15 -1 15 5 0 6 5 7 10 4 6 -3 10 -1 10 6
0 7 3 9 7 6 3 -4 12 1 20 11 10 11 12 12 8 2 -4 -8 5 -1 19 17 15 18 41 44 59
59 18 14 25 23 17 19 -8 -4 -4 3 10 15 14 12 18 19 10 15 -8 -4 -4 3 10 16 14
13 20 20 13 15 -24 -16 -14 0 19 30 18 16 28 22 23 14 -6 -9 -2 -7 8 3 9 11
17 16 17 11 0 -4 6 0 13 11 8 10 19 15 25 11 7 -4 12 -3 12 3 0 6 7 8 15 5 8
-4 15 -1 15 6 0 6 5 8 10 5 6 -3 15 -3 22 1 16 10 209 11 215 1 2 -4 13 -5 24
-2 11 4 19 2 19 -5 0 -6 5 -8 10 -5 6 3 10 1 10 -6 0 -7 3 -9 7 -6 3 4 12 -1
20 -11 9 -10 12 -11 7 -2 -4 8 7 2 24 -14 34 -32 40 -41 20 -31 -7 4 -5 0 4
-8 10 -8 15 -17 11 -20 -3 -4 -1 -7 6 -7 8 0 11 -7 7 -15 -3 -8 -1 -15 5 -15
6 0 7 -5 4 -11 -4 -6 1 -17 11 -25 11 -9 13 -13 4 -9 -8 4 -3 -3 12 -15 15
-12 39 -36 54 -53 14 -18 23 -25 19 -17 -5 12 -4 12 7 -1 7 -9 19 -14 26 -12
6 3 12 1 12 -4 0 -4 25 -8 55 -8 30 0 55 3 55 7 0 5 6 7 13 5 6 -1 11 4 10 11
-2 6 1 12 5 12 4 0 8 18 9 40 1 22 -3 40 -9 40 -6 0 -8 10 -4 25 4 15 2 25 -4
25 -7 0 -9 8 -5 20 4 12 2 20 -5 20 -7 0 -9 8 -5 20 4 11 2 20 -4 20 -6 0 -8
7 -5 15 4 8 1 15 -6 15 -7 0 -10 7 -6 15 3 8 1 15 -5 15 -6 0 -8 9 -4 21 5 16
4 19 -5 14 -9 -5 -10 -2 -5 14 4 12 2 21 -4 21 -6 0 -8 7 -5 15 4 8 1 15 -5
15 -6 0 -8 7 -5 15 4 8 1 15 -5 15 -6 0 -8 7 -5 15 4 8 1 15 -5 15 -6 0 -8 7
-5 15 4 8 1 15 -5 15 -6 0 -8 7 -5 15 4 8 1 15 -5 15 -6 0 -8 7 -5 15 4 8 1
15 -5 15 -6 0 -8 7 -4 17 5 12 3 14 -7 8 -10 -6 -12 -4 -7 8 4 10 2 17 -4 17
-6 0 -9 7 -5 15 3 8 1 15 -5 15 -6 0 -9 7 -5 15 3 8 1 15 -5 15 -6 0 -9 7 -5
15 3 8 1 15 -5 15 -6 0 -9 7 -5 15 3 8 1 15 -4 15 -5 0 -6 7 -3 17 5 12 3 14
-7 8 -10 -6 -12 -4 -7 8 4 10 2 17 -4 17 -6 0 -9 7 -5 15 3 8 1 15 -5 15 -6 0
-9 7 -5 15 3 8 1 15 -4 15 -5 0 -6 7 -3 17 5 12 3 14 -7 8 -10 -6 -12 -4 -7 8
4 10 2 17 -4 17 -6 0 -9 7 -5 15 3 8 1 15 -5 15 -6 0 -9 7 -5 15 3 8 1 15 -4
15 -5 0 -6 7 -3 17 5 12 3 14 -7 8 -10 -6 -12 -4 -7 8 3 10 2 17 -3 17 -5 0
-6 7 -3 17 5 12 3 14 -7 8 -10 -6 -12 -4 -7 8 3 10 2 17 -3 17 -5 0 -6 7 -3
17 5 12 3 14 -7 8 -10 -6 -12 -4 -7 8 3 10 2 17 -4 17 -6 0 -7 5 -4 10 3 6 2
10 -4 10 -6 0 -8 7 -5 15 4 8 1 15 -6 15 -6 0 -8 5 -5 10 3 6 1 10 -5 10 -6 0
-8 5 -5 10 3 6 1 10 -5 10 -6 0 -8 5 -5 10 3 6 1 10 -5 10 -6 0 -8 5 -5 10 3
6 1 10 -5 10 -6 0 -8 5 -5 10 3 6 1 10 -5 10 -6 0 -8 5 -5 10 3 6 1 10 -6 10
-7 0 -9 3 -6 7 4 3 -1 12 -11 20 -11 10 -12 12 -2 8 8 -4 6 1 -4 9 -11 9 -16
16 -12 16 5 0 0 8 -11 18 -10 9 -12 13 -3 7 8 -5 -6 12 -32 39 -26 26 -52 45
-58 41 -5 -3 -10 -1 -10 4 0 6 -9 11 -20 11 -11 0 -20 -5 -20 -11z m35 -536
c27 -26 43 -43 35 -39 -8 4 -7 1 2 -7 10 -8 15 -17 11 -20 -3 -4 -1 -7 6 -7 7
0 9 -4 6 -10 -3 -5 -1 -10 5 -10 6 0 8 -4 5 -10 -3 -5 -2 -10 4 -10 6 0 7 -7
4 -17 -5 -12 -3 -14 7 -8 10 6 12 4 7 -8 -3 -10 -2 -17 4 -17 6 0 8 -9 4 -19
-3 -11 -1 -22 4 -25 8 -5 8 -73 0 -83 -1 -2 -2 -7 -3 -12 0 -5 -5 -13 -10 -18
-5 -5 -6 -2 -2 7 4 8 0 6 -8 -4 -13 -17 -29 -20 -96 -20 -44 -1 -80 3 -80 7 0
5 -4 5 -10 2 -5 -3 -10 -1 -10 5 0 6 -4 9 -8 6 -5 -3 -9 0 -10 7 0 7 -2 29 -4
50 -3 21 -1 40 4 43 5 3 6 9 3 14 -3 5 -1 11 4 15 6 3 8 12 4 20 -3 8 0 15 7
15 7 0 10 7 7 15 -4 8 -2 17 4 21 6 3 8 12 5 20 -3 7 -1 16 5 20 6 3 8 13 4
22 -6 16 23 102 35 102 3 0 28 -21 55 -47z m5 12 c13 -14 21 -25 18 -25 -2 0
-15 11 -28 25 -13 14 -21 25 -18 25 2 0 15 -11 28 -25z"/>
<path d="M7214 5508 c-4 -6 -24 -8 -45 -5 -22 3 -42 1 -45 -5 -3 -5 -13 -7
-21 -4 -9 4 -22 1 -29 -5 -7 -6 -18 -8 -24 -4 -5 3 -10 1 -10 -5 0 -7 -6 -10
-14 -7 -17 7 -41 -18 -32 -32 4 -5 2 -12 -4 -16 -5 -3 -7 -17 -4 -31 4 -15 2
-24 -6 -24 -8 0 -10 -12 -5 -39 4 -25 2 -41 -5 -46 -7 -4 -9 -26 -4 -65 4 -37
2 -60 -5 -64 -7 -5 -9 -49 -6 -138 3 -72 2 -136 -3 -142 -4 -6 -6 -188 -4
-404 l4 -393 345 3 c190 1 347 6 350 11 3 4 18 5 34 2 19 -4 29 -3 29 5 0 8 9
10 25 6 16 -4 25 -2 25 5 0 6 7 9 15 5 8 -3 15 -1 15 5 0 6 7 9 15 5 8 -3 15
-1 15 4 0 5 7 7 15 4 8 -4 15 -1 15 7 0 7 3 9 7 6 3 -4 12 1 20 11 10 11 12
12 8 2 -4 -8 1 -6 9 4 9 11 16 16 16 10 0 -5 12 5 26 21 14 17 23 23 19 15 -4
-8 9 1 27 21 18 20 51 53 73 74 22 21 31 32 20 25 -11 -7 -4 2 15 20 19 18 28
29 20 25 -8 -4 -4 3 10 15 14 12 18 19 10 15 -10 -4 -9 -2 2 8 10 8 15 17 11
20 -3 4 -1 7 6 7 7 0 9 5 6 10 -3 6 -1 10 5 10 6 0 8 5 5 10 -3 6 -1 10 5 10
6 0 8 5 5 10 -3 6 -2 10 4 10 6 0 8 7 5 15 -4 8 -1 15 5 15 6 0 8 7 5 15 -4 8
-1 15 5 15 6 0 8 7 5 15 -4 8 -1 15 6 15 7 0 9 8 5 20 -4 12 -2 20 5 20 6 0 8
10 4 25 -3 14 -2 25 2 25 5 0 9 54 9 120 0 66 -4 120 -9 120 -4 0 -5 11 -2 25
4 15 2 25 -4 25 -7 0 -9 8 -5 20 4 12 2 20 -5 20 -7 0 -10 7 -6 15 3 8 1 15
-5 15 -6 0 -8 9 -4 21 5 16 4 19 -6 14 -9 -6 -11 -3 -6 8 3 10 2 17 -4 17 -6
0 -7 5 -4 10 3 6 1 10 -5 10 -6 0 -8 5 -5 10 3 6 1 10 -5 10 -6 0 -8 5 -5 10
3 6 1 10 -6 10 -7 0 -9 3 -6 7 4 3 -1 12 -11 20 -11 10 -12 12 -2 8 8 -4 4 3
-10 15 -14 12 -18 19 -10 15 8 -4 -1 7 -20 25 -19 18 -26 26 -15 19 11 -7 -11
20 -50 59 -66 69 -88 87 -69 59 5 -7 -4 1 -19 18 -16 16 -26 23 -22 15 4 -8
-2 -5 -12 6 -23 27 -60 47 -73 39 -6 -3 -10 -1 -10 5 0 6 -4 8 -10 5 -5 -3
-10 -1 -10 5 0 7 -8 9 -20 5 -11 -4 -20 -2 -20 4 0 6 -7 8 -15 5 -8 -4 -15 -1
-15 6 0 9 -11 10 -35 6 -20 -4 -41 -3 -48 1 -18 12 -426 12 -433 1z m346 -242
c0 -4 11 -5 25 -2 14 4 25 2 25 -3 0 -6 7 -8 15 -5 8 4 15 1 15 -5 0 -6 7 -8
17 -4 12 5 14 3 8 -7 -6 -10 -4 -12 8 -7 10 4 17 1 17 -5 0 -6 3 -8 7 -5 3 4
12 -1 20 -11 9 -11 12 -12 8 -2 -4 8 5 2 20 -15 14 -16 24 -24 20 -17 -11 21
-1 14 40 -29 22 -23 33 -39 25 -35 -8 4 -4 -2 10 -13 14 -11 22 -21 18 -21 -5
0 1 -9 13 -21 11 -11 18 -27 15 -35 -3 -8 -1 -14 4 -14 5 0 7 -7 4 -15 -4 -8
-1 -15 5 -15 6 0 8 -7 5 -15 -4 -8 -1 -15 5 -15 7 0 9 -9 5 -25 -3 -14 -2 -25
2 -25 5 0 9 -47 9 -105 1 -58 -3 -105 -8 -105 -5 0 -6 -13 -2 -30 4 -20 3 -30
-5 -30 -7 0 -9 -8 -5 -20 4 -11 2 -20 -4 -20 -6 0 -8 -7 -5 -15 4 -8 1 -15 -6
-15 -6 0 -8 -4 -5 -10 3 -5 1 -10 -5 -10 -6 0 -8 -4 -5 -10 3 -5 1 -10 -5 -10
-6 0 -8 -4 -5 -10 3 -5 1 -10 -4 -10 -6 0 -10 -4 -8 -9 1 -5 -7 -17 -18 -26
-11 -9 -14 -14 -7 -10 21 11 14 0 -25 -36 -20 -18 -33 -27 -28 -19 6 9 -1 4
-14 -10 -13 -14 -20 -18 -16 -10 4 10 1 9 -8 -2 -8 -10 -17 -15 -20 -11 -4 3
-7 1 -7 -5 0 -6 -7 -9 -17 -5 -11 5 -14 3 -8 -6 6 -10 2 -11 -15 -6 -16 5 -20
4 -15 -4 5 -8 -1 -10 -19 -5 -16 4 -26 2 -26 -5 0 -7 -15 -9 -45 -4 -31 4 -50
1 -62 -8 -14 -12 -16 -12 -8 0 7 12 -3 13 -63 8 -50 -4 -72 -2 -72 5 0 6 -2 9
-5 6 -9 -8 -66 52 -59 63 3 5 0 9 -6 9 -8 0 -10 9 -6 24 3 12 3 26 -1 30 -4 4
-8 50 -8 104 -1 53 -5 135 -9 182 -6 64 -5 81 4 70 8 -11 10 22 8 137 -2 83 0
155 4 159 4 4 5 17 2 29 -3 13 -1 26 5 29 5 4 8 13 4 21 -3 8 1 15 8 15 7 0
10 3 7 6 -8 7 35 51 45 47 4 -2 7 -1 7 4 0 4 45 8 100 8 55 0 100 -4 100 -9z
m-239 -913 c13 -16 12 -17 -3 -4 -17 13 -22 21 -14 21 2 0 10 -8 17 -17z"/>
<path d="M8830 5508 c0 -5 -3 -8 -7 -6 -10 5 -72 -59 -65 -67 3 -3 0 -5 -7 -5
-7 0 -9 -4 -6 -10 3 -5 1 -10 -5 -10 -6 0 -8 -4 -5 -10 3 -5 1 -10 -5 -10 -7
0 -10 -7 -6 -15 3 -8 1 -15 -5 -15 -6 0 -7 -4 -4 -10 3 -5 2 -10 -4 -10 -6 0
-7 -7 -4 -17 5 -12 3 -14 -7 -8 -10 6 -12 4 -7 -8 3 -10 2 -17 -3 -17 -5 0 -6
-7 -3 -17 5 -12 3 -14 -7 -8 -10 6 -12 4 -7 -8 3 -10 2 -17 -3 -17 -5 0 -7 -7
-4 -15 4 -8 1 -15 -6 -15 -6 0 -8 -4 -5 -10 3 -5 2 -10 -4 -10 -6 0 -8 -7 -5
-15 4 -8 1 -15 -5 -15 -6 0 -8 -7 -4 -17 5 -12 3 -14 -7 -8 -10 6 -12 4 -7 -8
4 -10 2 -17 -4 -17 -6 0 -9 -7 -5 -15 3 -8 1 -15 -4 -15 -5 0 -7 -7 -4 -15 4
-8 1 -15 -6 -15 -6 0 -8 -4 -5 -10 3 -5 1 -10 -5 -10 -7 0 -10 -7 -6 -15 3 -8
1 -15 -4 -15 -5 0 -7 -7 -4 -15 4 -8 1 -15 -5 -15 -6 0 -8 -7 -4 -17 5 -12 3
-14 -7 -8 -10 6 -12 4 -7 -8 3 -10 2 -17 -4 -17 -6 0 -8 -9 -4 -21 5 -16 4
-19 -6 -14 -9 6 -11 3 -6 -8 4 -10 2 -17 -4 -17 -6 0 -9 -7 -5 -15 3 -8 1 -15
-4 -15 -5 0 -7 -7 -4 -15 4 -8 1 -15 -5 -15 -6 0 -8 -7 -5 -15 4 -8 1 -15 -5
-15 -6 0 -8 -7 -5 -15 4 -8 1 -15 -5 -15 -6 0 -8 -7 -5 -15 4 -8 1 -15 -5 -15
-6 0 -8 -7 -4 -17 5 -12 3 -14 -7 -8 -10 6 -12 4 -7 -8 4 -10 2 -17 -4 -17 -6
0 -9 -7 -5 -15 3 -8 1 -15 -4 -15 -5 0 -7 -7 -4 -15 4 -8 1 -15 -5 -15 -6 0
-8 -7 -5 -15 4 -8 1 -15 -5 -15 -6 0 -8 -7 -4 -17 5 -12 3 -14 -7 -8 -10 6
-12 4 -7 -8 4 -10 2 -17 -4 -17 -6 0 -9 -7 -5 -15 3 -8 1 -15 -5 -15 -6 0 -9
-7 -5 -15 3 -8 1 -15 -4 -15 -5 0 -6 -7 -3 -17 5 -11 3 -14 -6 -8 -10 5 -11 2
-6 -14 4 -12 2 -21 -4 -21 -6 0 -8 -7 -5 -15 4 -8 1 -15 -5 -15 -6 0 -8 -7 -5
-15 4 -8 1 -15 -5 -15 -6 0 -8 -7 -5 -15 4 -8 1 -15 -6 -15 -7 0 -9 -8 -5 -20
4 -11 2 -20 -4 -20 -6 0 -8 -7 -5 -15 4 -8 1 -15 -6 -15 -8 0 -10 -9 -6 -25 4
-14 2 -25 -4 -25 -5 0 -10 -13 -10 -30 0 -16 5 -30 11 -30 6 0 9 -7 6 -15 -4
-8 -1 -17 5 -21 7 -5 8 -2 4 7 -5 10 -4 10 6 -1 14 -16 118 -22 118 -7 0 5 5
5 10 2 6 -3 10 -1 10 6 0 7 3 9 7 6 3 -4 12 1 20 11 9 10 12 11 7 2 -4 -8 9 1
29 19 37 35 48 51 24 35 -7 -5 -5 -2 5 7 9 9 14 19 11 23 -4 3 -1 6 6 6 8 0
11 7 7 15 -3 8 -1 15 5 15 6 0 9 7 5 15 -3 8 0 15 6 15 6 0 8 3 5 7 -4 3 1 12
11 20 9 8 11 12 5 8 -21 -10 -15 -1 19 31 17 16 28 22 24 14 -5 -9 -2 -8 7 2
8 10 17 15 20 11 4 -3 7 -1 7 6 0 8 7 11 15 7 8 -3 15 -1 15 5 0 6 9 8 20 4
11 -3 20 -2 20 2 0 5 63 9 140 9 77 0 140 -4 140 -9 0 -5 7 -7 15 -3 8 3 15 1
15 -5 0 -6 7 -9 15 -5 8 3 15 0 15 -6 0 -6 2 -9 5 -6 7 7 82 -65 77 -74 -2 -5
1 -8 7 -8 6 0 8 -7 5 -15 -4 -8 -1 -15 5 -15 6 0 8 -7 5 -15 -4 -8 -1 -15 6
-15 6 0 8 -4 5 -10 -3 -5 -1 -10 5 -10 6 0 8 -4 5 -10 -3 -5 -1 -10 5 -10 6 0
9 -4 5 -9 -3 -6 4 -15 15 -21 11 -6 18 -15 15 -21 -4 -5 -2 -8 4 -7 5 2 17 -6
26 -17 9 -11 14 -14 10 -8 -4 9 -1 11 9 7 9 -3 14 -9 12 -13 -2 -3 32 -6 75
-7 43 0 79 4 79 9 0 4 3 6 8 4 4 -3 8 6 8 19 1 13 -2 24 -7 24 -4 0 -6 7 -3
15 4 8 1 15 -5 15 -6 0 -8 7 -5 15 4 8 1 15 -5 15 -6 0 -8 7 -5 15 4 8 1 15
-5 15 -6 0 -8 7 -5 15 4 8 1 15 -6 15 -7 0 -10 7 -6 15 3 8 1 15 -5 15 -6 0
-9 7 -5 15 3 8 1 15 -4 15 -5 0 -7 7 -4 15 4 8 1 15 -5 15 -6 0 -8 7 -5 15 4
8 1 15 -6 15 -7 0 -10 7 -6 15 3 8 1 15 -4 15 -5 0 -7 7 -4 15 4 8 1 15 -5 15
-6 0 -8 7 -5 15 4 8 1 15 -5 15 -6 0 -8 7 -5 15 4 8 1 15 -5 15 -6 0 -8 7 -5
15 4 8 1 15 -5 15 -6 0 -8 7 -5 15 4 8 1 15 -5 15 -6 0 -8 7 -5 15 4 8 1 15
-6 15 -6 0 -8 5 -5 10 3 6 1 10 -5 10 -7 0 -10 7 -6 15 3 8 1 15 -5 15 -6 0
-9 7 -5 15 3 8 1 15 -5 15 -6 0 -9 7 -5 15 3 8 1 15 -5 15 -6 0 -9 7 -5 15 3
8 1 15 -5 15 -6 0 -9 7 -5 15 3 8 1 15 -4 15 -5 0 -7 7 -4 15 4 8 1 15 -5 15
-6 0 -8 7 -5 15 4 8 1 15 -5 15 -6 0 -8 7 -5 15 4 8 1 15 -5 15 -6 0 -8 7 -4
17 5 12 3 14 -7 8 -10 -6 -12 -4 -7 8 4 10 2 17 -4 17 -6 0 -9 7 -5 15 3 8 1
15 -5 15 -6 0 -9 7 -5 15 3 8 1 15 -5 15 -6 0 -9 7 -5 15 3 8 1 15 -4 15 -5 0
-7 7 -4 15 4 8 1 15 -5 15 -6 0 -8 7 -5 15 4 8 1 15 -5 15 -6 0 -8 7 -4 17 5
12 3 14 -7 8 -10 -6 -12 -4 -7 8 4 10 2 17 -4 17 -6 0 -9 7 -5 15 3 8 1 15 -5
15 -6 0 -9 7 -5 15 3 8 1 15 -5 15 -6 0 -9 7 -5 15 3 8 1 15 -4 15 -5 0 -7 7
-4 15 4 8 1 15 -5 15 -6 0 -8 7 -5 15 4 8 1 15 -6 15 -6 0 -8 5 -5 10 3 6 1
10 -5 10 -7 0 -10 7 -6 15 3 8 1 15 -5 15 -6 0 -9 7 -5 15 3 8 1 15 -4 15 -5
0 -7 7 -4 15 4 8 1 15 -6 15 -6 0 -8 5 -4 12 4 6 -1 17 -11 25 -11 7 -16 13
-13 13 3 0 -13 19 -36 43 -22 23 -44 41 -48 39 -5 -2 -8 2 -8 8 0 6 -4 8 -10
5 -5 -3 -10 -2 -10 2 0 5 -25 9 -55 9 -30 1 -55 -3 -55 -8z m98 -528 c17 -16
28 -30 24 -30 -3 0 3 -7 14 -16 10 -8 12 -13 4 -9 -10 4 -9 2 2 -8 10 -8 15
-17 11 -20 -3 -4 -1 -7 5 -7 6 0 9 -7 5 -17 -5 -12 -3 -14 7 -8 10 6 12 4 7
-8 -3 -10 -2 -17 4 -17 6 0 8 -9 4 -20 -4 -11 -2 -20 4 -20 6 0 11 -18 11 -40
0 -23 -5 -40 -11 -40 -6 0 -9 -6 -7 -12 5 -14 -37 -59 -46 -50 -3 3 -6 1 -6
-4 0 -11 -103 -12 -111 -1 -3 5 -15 10 -25 11 -12 2 -18 10 -16 21 2 9 0 15
-5 12 -4 -3 -8 19 -8 49 0 30 4 54 8 54 5 0 5 9 2 20 -4 12 -2 20 5 20 7 0 10
7 6 15 -3 8 -1 15 5 15 6 0 9 7 5 15 -3 8 -1 15 5 15 6 0 9 7 5 15 -3 8 -1 15
5 15 6 0 7 5 4 10 -3 6 -1 10 5 10 6 0 8 5 5 10 -3 6 -1 10 5 10 6 0 9 4 5 9
-4 7 17 28 32 31 1 0 15 -13 31 -30z m242 -645 c13 -14 21 -25 18 -25 -2 0
-15 11 -28 25 -13 14 -21 25 -18 25 2 0 15 -11 28 -25z"/>
<path d="M9673 4938 c2 -321 8 -591 12 -601 4 -9 4 -33 1 -51 -4 -21 -2 -37 5
-41 6 -4 8 -18 5 -31 -4 -14 -2 -24 4 -24 7 0 9 -8 5 -20 -4 -12 -2 -20 5 -20
6 0 8 -4 5 -10 -3 -5 -1 -10 6 -10 7 0 10 -3 6 -6 -13 -13 27 -38 61 -38 25
-1 44 7 62 24 14 14 24 28 22 33 -2 4 1 7 7 7 6 0 8 7 5 15 -4 8 -1 15 6 15 7
0 9 8 5 20 -3 11 -3 20 2 20 8 0 13 74 16 218 1 34 5 62 10 62 5 0 6 11 3 25
-4 14 -2 25 3 25 6 0 8 6 5 14 -3 7 6 26 20 42 20 24 32 29 68 29 26 0 48 -6
56 -15 12 -13 13 -13 7 0 -4 8 5 1 19 -17 15 -17 45 -48 69 -68 23 -20 35 -34
27 -30 -8 4 -4 -3 10 -15 14 -12 18 -19 10 -15 -8 4 -4 -3 10 -15 14 -12 18
-19 10 -15 -10 4 -9 2 2 -8 10 -8 15 -17 11 -20 -3 -4 -1 -7 6 -7 7 0 9 -4 6
-10 -3 -5 -1 -10 5 -10 6 0 8 -4 5 -10 -3 -5 -1 -10 5 -10 6 0 8 -4 5 -10 -3
-5 -1 -10 5 -10 6 0 8 -4 5 -10 -3 -5 -1 -10 6 -10 7 0 9 -3 6 -7 -4 -3 1 -12
11 -20 11 -10 12 -12 2 -8 -8 4 -6 -1 4 -9 11 -9 16 -16 11 -16 -5 0 0 -7 11
-16 10 -8 12 -12 4 -8 -8 3 1 -8 20 -26 19 -18 26 -26 15 -19 -11 7 2 -10 30
-39 48 -51 66 -65 49 -39 -5 7 1 2 12 -11 12 -14 27 -21 33 -18 6 4 11 3 11
-2 0 -4 33 -8 73 -8 52 0 76 5 85 16 12 13 12 13 6 0 -4 -8 -4 -12 1 -8 10 9
13 88 3 88 -4 0 -5 7 -2 15 4 8 1 15 -6 15 -6 0 -8 5 -5 10 3 6 1 10 -5 10 -6
0 -8 5 -5 10 3 6 2 10 -4 10 -6 0 -8 6 -5 14 3 8 -3 23 -14 34 -11 11 -18 23
-14 26 3 3 0 6 -7 6 -7 0 -9 5 -6 10 3 6 1 10 -5 10 -6 0 -8 5 -5 10 3 6 1 10
-5 10 -6 0 -8 5 -5 10 3 6 1 10 -5 10 -6 0 -8 5 -5 10 3 6 1 10 -5 10 -6 0 -8
5 -5 10 3 6 1 10 -5 10 -6 0 -8 5 -5 10 3 6 1 10 -5 10 -6 0 -8 5 -5 10 3 6 1
10 -5 10 -6 0 -8 5 -5 10 3 6 2 10 -4 10 -6 0 -8 7 -5 15 4 8 1 15 -6 15 -6 0
-8 5 -5 10 3 6 2 10 -4 10 -6 0 -8 7 -5 15 4 8 1 15 -6 15 -7 0 -9 8 -5 20 4
11 2 20 -4 20 -6 0 -11 11 -11 25 0 14 5 25 11 25 6 0 9 7 5 15 -3 8 -1 15 5
15 6 0 7 5 3 11 -4 7 8 25 28 43 19 17 27 27 18 21 -9 -5 0 6 20 25 20 19 29
31 20 25 -9 -5 -2 3 14 19 17 16 24 25 16 21 -8 -4 -4 3 10 15 14 12 19 19 12
15 -10 -5 -10 -1 -1 19 7 14 17 23 22 19 6 -4 8 0 4 10 -3 10 -2 17 3 17 5 0
7 7 4 15 -4 8 -1 15 5 15 6 0 8 11 5 30 -4 19 -2 30 5 30 6 0 11 9 11 20 0 11
-5 20 -11 20 -7 0 -9 11 -5 30 3 19 1 30 -5 30 -6 0 -9 7 -5 15 3 8 1 15 -4
15 -5 0 -6 7 -3 17 5 12 3 14 -7 8 -10 -6 -12 -4 -7 9 4 10 3 15 -3 11 -9 -5
-12 1 -9 21 0 3 -8 12 -18 21 -10 8 -11 11 -3 7 8 -3 -1 8 -20 26 -19 18 -26
26 -15 19 11 -7 -5 13 -35 44 -55 57 -73 72 -50 40 7 -10 1 -5 -14 10 -14 15
-26 25 -26 21 0 -4 -7 1 -16 12 -8 10 -13 13 -9 7 4 -9 1 -11 -9 -7 -9 3 -13
11 -9 17 4 6 0 8 -10 4 -10 -3 -17 -2 -17 4 0 6 -4 7 -10 4 -5 -3 -10 -2 -10
4 0 6 -7 8 -15 5 -8 -4 -15 -1 -15 6 0 7 -8 9 -20 5 -12 -4 -20 -2 -20 5 0 7
-7 10 -15 6 -8 -3 -15 -1 -15 5 0 7 -12 9 -34 5 -19 -4 -37 -3 -39 1 -3 5
-125 10 -272 11 l-267 4 5 -584z m435 328 c23 1 42 -3 42 -8 0 -6 11 -7 25 -4
16 4 25 2 25 -5 0 -6 7 -9 15 -5 8 3 15 1 15 -5 0 -6 7 -9 15 -5 8 3 15 1 15
-5 0 -6 4 -7 10 -4 12 8 96 -76 92 -92 -2 -7 2 -13 8 -13 6 0 8 -4 5 -10 -3
-5 -2 -10 3 -10 5 0 9 -20 8 -45 0 -25 -4 -45 -8 -45 -5 0 -8 -7 -8 -16 0 -9
-10 -30 -22 -47 -13 -17 -16 -27 -7 -22 7 4 1 -6 -15 -23 -16 -17 -33 -29 -38
-26 -4 3 -11 -2 -14 -10 -3 -9 -10 -14 -14 -11 -4 3 -13 -2 -20 -10 -7 -8 -16
-12 -21 -9 -5 3 -9 0 -9 -6 0 -6 -4 -9 -9 -5 -5 3 -13 0 -16 -6 -4 -5 -13 -8
-20 -5 -7 2 -16 2 -19 -2 -10 -9 -146 -8 -149 1 -1 4 -11 10 -22 11 -11 2 -19
9 -17 15 1 6 -4 14 -12 17 -8 3 -12 12 -9 20 3 8 0 14 -7 14 -6 0 -8 5 -5 10
3 6 3 15 -1 22 -11 17 -11 268 0 268 4 0 6 7 2 15 -3 8 0 15 6 15 6 0 8 3 5 7
-9 9 13 34 24 27 5 -3 9 -1 9 4 0 6 8 8 19 5 10 -3 22 0 26 7 4 7 15 8 28 3
12 -4 41 -7 65 -7z m42 -691 c19 -19 32 -35 29 -35 -3 0 -20 16 -39 35 -19 19
-32 35 -29 35 3 0 20 -16 39 -35z"/>
<path d="M10960 5506 c0 -5 -3 -7 -6 -3 -7 7 -42 -26 -37 -35 2 -5 -1 -8 -7
-8 -6 0 -8 -4 -5 -10 3 -5 1 -10 -5 -10 -7 0 -9 -8 -5 -20 4 -12 2 -20 -5 -20
-7 0 -9 -12 -4 -35 4 -21 2 -35 -4 -35 -6 0 -10 -41 -11 -102 -4 -363 -4 -459
1 -689 3 -142 9 -262 13 -268 3 -6 4 -25 0 -41 -4 -20 -3 -30 5 -30 7 0 9 -8
5 -20 -4 -12 -2 -20 5 -20 6 0 8 -5 5 -11 -7 -11 40 -60 49 -51 3 3 6 1 6 -4
0 -5 32 -10 70 -10 39 0 70 4 70 9 0 4 4 6 9 3 4 -3 17 4 27 16 13 15 14 19 4
14 -12 -6 -12 -5 1 6 9 7 14 19 12 26 -3 6 1 12 7 12 7 0 9 8 5 19 -3 11 -1
22 5 26 6 4 7 22 4 46 -4 21 -3 39 2 39 11 0 10 982 0 999 -4 6 -5 30 -1 51 5
28 3 40 -5 40 -7 0 -9 8 -5 20 4 12 2 20 -5 20 -7 0 -10 7 -6 15 3 8 1 15 -5
15 -6 0 -8 3 -6 8 5 9 -30 42 -37 35 -3 -4 -6 -2 -6 4 0 6 -29 10 -70 9 -38 0
-70 -5 -70 -10z"/>
<path d="M11494 5493 c-12 -12 -19 -24 -16 -27 3 -3 0 -6 -7 -6 -8 0 -11 -7
-7 -15 3 -8 1 -15 -5 -15 -5 0 -7 -11 -3 -25 4 -16 2 -25 -5 -25 -8 0 -9 -13
-5 -40 4 -25 3 -40 -4 -40 -7 0 -9 -37 -6 -109 2 -66 0 -112 -6 -116 -6 -4 -7
-39 -3 -93 4 -48 7 -144 6 -214 0 -78 3 -128 9 -128 6 0 8 -17 4 -44 -5 -28
-3 -47 4 -51 7 -4 9 -19 5 -36 -4 -18 -3 -29 4 -29 7 0 9 -10 5 -26 -5 -21 -4
-25 6 -19 10 6 11 2 6 -19 -4 -15 -2 -26 3 -26 6 0 8 -7 5 -15 -4 -8 -1 -15 5
-15 6 0 8 -7 5 -15 -4 -8 -1 -15 6 -15 6 0 8 -4 5 -10 -3 -5 -1 -10 5 -10 6 0
8 -4 5 -10 -3 -5 -1 -10 5 -10 6 0 8 -4 5 -10 -3 -5 -1 -10 6 -10 7 0 10 -3 6
-6 -3 -4 4 -15 16 -26 12 -11 15 -17 7 -13 -8 4 -4 -3 10 -15 14 -12 33 -31
43 -43 10 -12 16 -15 12 -7 -4 8 1 6 10 -5 9 -11 21 -19 26 -18 5 2 9 -2 9 -8
0 -5 5 -7 10 -4 6 3 10 1 10 -5 0 -6 5 -8 10 -5 6 3 10 1 10 -5 0 -7 7 -10 15
-6 8 3 15 1 15 -5 0 -6 9 -8 20 -4 12 4 20 2 20 -5 0 -7 8 -9 20 -5 12 4 20 2
20 -5 0 -7 12 -9 35 -4 23 4 35 2 35 -5 0 -15 256 -15 265 0 4 6 19 7 36 4 19
-4 29 -3 29 5 0 7 8 10 20 7 11 -3 20 -1 20 5 0 5 10 6 21 3 16 -5 19 -4 14 6
-6 9 -3 11 8 6 10 -3 17 -2 17 4 0 6 5 7 12 3 6 -4 17 1 25 11 7 11 13 15 13
10 0 -5 7 0 16 11 8 10 12 12 9 4 -4 -8 5 -1 19 17 15 18 41 44 59 59 18 14
25 23 17 19 -8 -4 -4 3 10 15 14 12 18 19 10 15 -10 -4 -9 -2 2 8 10 8 15 17
11 20 -3 4 -1 7 6 7 7 0 9 5 6 10 -3 6 -1 10 5 10 6 0 8 5 5 10 -3 6 -1 10 5
10 7 0 10 7 6 15 -3 8 -1 15 5 15 6 0 9 7 5 15 -3 8 -1 15 5 15 6 0 8 9 4 20
-3 11 -2 20 3 20 6 0 8 9 5 20 -3 11 0 20 6 20 7 0 9 9 5 25 -4 16 -2 25 6 25
8 0 9 10 5 29 -4 17 -2 32 5 36 7 4 9 21 5 45 -4 21 -3 40 2 43 10 6 9 589 -1
606 -5 7 -5 28 -2 47 5 23 3 34 -5 34 -7 0 -9 9 -5 25 4 16 2 25 -5 25 -6 0
-9 7 -5 15 3 8 1 15 -5 15 -6 0 -8 3 -6 8 2 4 -6 16 -18 27 -22 20 -95 31 -95
13 0 -5 -4 -7 -9 -4 -4 3 -17 -4 -27 -16 -11 -12 -13 -18 -7 -14 9 5 11 2 7
-8 -3 -9 -11 -13 -17 -9 -6 4 -8 0 -4 -10 3 -10 2 -17 -4 -17 -5 0 -7 -11 -3
-25 3 -14 2 -25 -3 -25 -10 0 -11 -24 -15 -265 -2 -82 -7 -156 -12 -163 -4 -7
-5 -29 -1 -48 4 -22 2 -41 -5 -49 -7 -8 -9 -23 -5 -35 4 -12 1 -27 -5 -35 -6
-8 -9 -23 -5 -34 3 -10 1 -22 -5 -26 -6 -4 -8 -15 -5 -26 4 -11 2 -19 -5 -19
-7 0 -10 -8 -7 -20 3 -11 1 -20 -5 -20 -5 0 -6 -9 -3 -20 4 -12 2 -20 -5 -20
-7 0 -9 -8 -5 -21 5 -16 4 -19 -6 -14 -9 6 -11 3 -6 -8 4 -10 2 -17 -4 -17 -6
0 -9 -7 -5 -15 3 -8 1 -15 -5 -15 -6 0 -7 -4 -4 -10 3 -5 1 -10 -5 -10 -7 0
-9 -7 -6 -16 3 -8 2 -13 -3 -10 -4 3 -13 -6 -20 -20 -9 -20 -9 -24 1 -19 7 4
2 -3 -12 -15 -14 -12 -18 -19 -10 -15 8 4 4 -2 -10 -14 -14 -11 -25 -26 -25
-33 0 -7 -5 -13 -12 -13 -7 0 -19 -9 -28 -20 -9 -11 -14 -13 -10 -5 5 12 4 12
-7 -1 -7 -9 -19 -14 -25 -12 -7 3 -13 1 -13 -4 0 -4 -23 -8 -50 -9 -28 -1 -50
3 -50 9 0 5 -7 7 -15 3 -8 -3 -15 -1 -15 5 0 6 -5 7 -11 3 -7 -4 -20 4 -31 17
-11 13 -17 17 -13 9 4 -8 -3 -4 -16 10 -13 14 -20 19 -15 10 6 -8 -18 12 -52
45 -61 58 -80 82 -44 54 10 -8 4 -1 -12 15 -17 16 -24 25 -16 22 10 -5 9 -2
-2 7 -10 8 -15 17 -11 20 3 4 1 7 -6 7 -7 0 -9 5 -6 10 3 6 2 10 -4 10 -6 0
-7 7 -4 17 5 11 3 14 -6 8 -10 -5 -11 -2 -6 14 4 12 2 21 -4 21 -6 0 -8 7 -5
15 4 8 1 15 -6 15 -8 0 -10 9 -6 25 4 15 2 25 -5 25 -7 0 -9 13 -4 40 4 22 3
40 -2 40 -5 0 -10 57 -11 128 -1 70 -3 195 -5 277 -1 83 -6 156 -10 163 -5 7
-6 26 -2 42 4 20 3 30 -5 30 -7 0 -9 8 -5 20 4 12 2 20 -5 20 -6 0 -9 4 -6 9
4 5 -7 22 -22 38 -36 35 -87 38 -118 6z"/>
<path d="M13175 5509 c-4 -6 -19 -7 -36 -4 -19 4 -29 3 -29 -5 0 -7 -7 -10
-15 -6 -8 3 -15 1 -15 -5 0 -6 -5 -7 -12 -3 -6 4 -17 -1 -25 -11 -7 -11 -13
-16 -13 -13 0 9 -84 -76 -85 -85 0 -4 -7 -12 -15 -17 -8 -5 -10 -10 -5 -10 6
0 1 -7 -9 -15 -11 -8 -16 -15 -11 -15 5 0 0 -7 -11 -16 -10 -8 -12 -13 -4 -9
10 4 9 2 -2 -8 -10 -8 -15 -17 -11 -20 3 -4 1 -7 -6 -7 -7 0 -9 -4 -6 -10 3
-5 2 -10 -4 -10 -6 0 -8 -7 -5 -15 4 -8 1 -15 -5 -15 -6 0 -8 -7 -5 -15 4 -8
2 -15 -2 -15 -5 0 -9 -33 -9 -74 0 -41 4 -72 9 -69 4 3 5 -5 1 -17 -5 -17 -4
-20 5 -15 8 5 11 3 8 -6 -3 -8 2 -20 11 -27 13 -11 13 -12 1 -7 -8 4 -4 -3 10
-15 14 -12 18 -19 10 -15 -8 3 -1 -6 16 -22 17 -15 42 -39 55 -53 13 -15 20
-19 14 -10 -5 9 3 2 19 -14 16 -17 25 -24 21 -16 -4 8 3 4 15 -10 12 -14 19
-18 15 -10 -4 8 3 4 15 -10 12 -14 19 -19 15 -12 -6 11 -3 12 14 3 11 -7 21
-16 21 -22 0 -6 5 -7 10 -4 6 3 10 1 10 -5 0 -6 4 -9 9 -6 14 9 42 -5 34 -17
-4 -6 0 -8 10 -4 10 3 17 2 17 -4 0 -6 5 -7 10 -4 6 3 10 1 10 -5 0 -6 4 -9 9
-6 14 9 42 -5 34 -17 -4 -6 0 -8 10 -4 10 3 17 2 17 -4 0 -6 5 -7 10 -4 6 3
10 2 10 -4 0 -6 7 -7 17 -4 10 4 14 2 10 -4 -8 -12 20 -26 34 -17 5 3 9 0 9
-6 0 -6 5 -8 10 -5 6 3 10 1 10 -6 0 -7 3 -9 7 -6 3 4 12 -1 20 -11 10 -11 12
-12 8 -2 -4 8 1 6 9 -4 9 -11 16 -16 16 -11 0 5 7 0 15 -11 8 -10 15 -15 15
-11 0 4 10 -2 23 -15 15 -17 18 -18 7 -3 -8 11 2 4 23 -14 39 -36 46 -47 25
-36 -7 4 -5 0 4 -8 10 -8 15 -17 11 -20 -3 -4 -2 -7 3 -7 5 0 10 -12 9 -27 0
-26 -43 -82 -57 -75 -5 2 -8 -2 -8 -8 0 -7 -7 -10 -15 -6 -8 3 -15 1 -15 -5 0
-5 -11 -7 -25 -3 -16 4 -25 2 -25 -6 0 -8 -9 -10 -24 -6 -14 3 -27 2 -31 -3
-7 -12 -205 -11 -205 1 0 12 -138 10 -145 -3 -4 -6 -22 -8 -46 -4 -27 5 -39 3
-39 -5 0 -7 -8 -9 -20 -5 -12 4 -20 2 -20 -5 0 -7 -7 -10 -15 -6 -8 3 -15 1
-15 -5 0 -6 -4 -7 -10 -4 -5 3 -10 1 -10 -5 0 -6 -4 -9 -9 -6 -5 3 -12 -1 -15
-10 -3 -8 -11 -12 -17 -8 -8 4 -9 3 -5 -4 4 -7 3 -12 -1 -12 -5 0 -9 -10 -10
-21 -2 -21 54 -85 70 -81 4 1 7 -3 7 -9 0 -5 5 -7 10 -4 6 3 10 1 10 -5 0 -6
5 -8 10 -5 6 3 10 1 10 -5 0 -7 7 -10 15 -6 8 3 15 1 15 -4 0 -5 7 -7 15 -4 8
4 15 1 15 -6 0 -7 7 -10 15 -6 8 3 15 1 15 -5 0 -5 11 -7 25 -3 16 4 25 2 25
-6 0 -7 8 -9 19 -5 11 3 22 1 26 -5 3 -5 17 -7 30 -4 12 3 26 1 30 -5 4 -7 21
-9 44 -5 24 4 41 2 45 -5 9 -14 83 -14 92 0 4 7 23 9 50 5 28 -3 44 -2 44 5 0
6 9 8 20 4 12 -4 20 -2 20 5 0 7 8 9 20 5 12 -4 20 -2 20 5 0 7 7 10 15 6 8
-3 15 -1 15 4 0 5 7 6 17 3 12 -5 14 -3 8 7 -6 10 -4 12 8 7 10 -4 17 -1 17 5
0 6 3 8 7 5 3 -4 12 1 20 11 10 11 12 12 8 2 -4 -8 3 -4 15 10 12 14 19 18 15
10 -4 -8 5 -1 21 16 16 16 22 21 14 10 -8 -12 9 1 38 29 52 49 69 71 34 44
-10 -8 -4 -1 12 15 17 16 24 25 16 22 -10 -5 -9 -2 2 7 10 8 15 17 11 20 -3 4
-1 7 6 7 7 0 9 5 6 10 -3 6 -1 10 5 10 6 0 8 5 5 10 -3 6 -2 10 4 10 6 0 8 7
5 15 -4 8 -2 15 4 15 6 0 8 9 5 20 -3 11 -1 20 5 20 5 0 10 23 10 50 0 28 -5
50 -10 50 -5 0 -6 9 -3 20 4 12 2 20 -5 20 -6 0 -8 5 -5 10 3 6 1 10 -5 10 -6
0 -8 5 -5 10 3 6 1 10 -6 10 -7 0 -9 3 -6 7 4 3 -1 12 -11 20 -11 10 -12 12
-2 8 8 -4 -4 10 -27 30 -24 20 -54 51 -69 68 -14 18 -23 25 -19 17 3 -8 -6 -1
-20 15 -15 17 -24 23 -20 15 4 -8 -3 -4 -15 10 -12 14 -19 18 -15 10 4 -8 -1
-6 -9 4 -9 11 -16 16 -16 11 0 -5 -6 -1 -13 10 -8 10 -19 15 -25 11 -7 -4 -12
-2 -12 4 0 6 -4 9 -9 6 -5 -3 -12 1 -15 10 -4 9 -13 14 -21 10 -8 -3 -15 -1
-15 5 0 6 -4 7 -10 4 -5 -3 -10 -1 -10 5 0 6 -4 8 -10 5 -5 -3 -10 -2 -10 4 0
6 -7 7 -17 4 -12 -5 -14 -3 -8 7 6 10 4 12 -8 7 -10 -3 -17 -2 -17 3 0 5 -7 6
-17 3 -12 -5 -14 -3 -8 7 6 10 4 12 -8 7 -10 -3 -17 -2 -17 4 0 6 -4 7 -10 4
-5 -3 -10 -1 -10 5 0 6 -4 8 -10 5 -5 -3 -10 -1 -10 5 0 6 -4 8 -10 5 -5 -3
-10 -1 -10 5 0 6 -4 8 -10 5 -5 -3 -10 -1 -10 6 0 7 -3 9 -7 6 -3 -4 -12 1
-20 11 -9 11 -12 12 -8 2 4 -8 -5 -1 -20 15 -14 17 -23 23 -19 15 4 -8 -9 1
-29 19 -39 37 -45 46 -24 36 6 -4 4 0 -5 8 -20 15 -25 57 -7 57 5 0 8 4 5 9
-3 5 2 15 11 22 14 12 16 12 9 -1 -6 -12 -4 -11 6 1 7 9 19 14 26 12 6 -3 12
0 12 6 0 6 7 8 15 5 8 -4 15 -1 15 5 0 7 9 9 24 5 13 -3 26 -2 29 3 3 4 107 8
231 8 124 -1 226 3 226 8 0 5 6 7 12 5 7 -3 19 3 28 12 12 13 13 13 5 0 -7
-12 -7 -13 5 -3 14 13 21 113 8 113 -4 0 -4 7 -1 17 4 11 3 14 -5 9 -7 -4 -13
-2 -13 3 -1 6 -2 17 -3 24 -1 6 -7 11 -14 9 -7 -1 -15 5 -18 13 -3 8 -10 12
-15 9 -5 -3 -9 0 -9 6 0 6 -4 8 -10 5 -5 -3 -10 -1 -10 5 0 7 -7 10 -15 6 -8
-3 -15 -1 -15 5 0 6 -9 8 -20 4 -12 -4 -20 -2 -20 5 0 7 -12 9 -35 4 -24 -4
-35 -3 -35 6 0 8 -12 10 -39 5 -25 -4 -41 -2 -46 5 -5 8 -29 9 -80 5 -49 -5
-75 -4 -79 4 -9 14 -143 15 -151 0z m415 -1113 c0 -2 -8 -10 -17 -17 -16 -13
-17 -12 -4 4 13 16 21 21 21 13z"/>
<path d="M14070 4800 l0 -722 280 4 c154 2 283 7 287 11 3 4 22 4 40 1 23 -4
33 -2 33 6 0 8 9 10 24 6 14 -3 28 -1 31 4 4 6 15 8 26 5 11 -4 19 -2 19 5 0
7 7 10 15 6 8 -3 15 -1 15 4 0 5 7 7 15 4 8 -4 15 -1 15 5 0 6 7 8 17 4 12 -5
14 -3 8 7 -6 10 -4 12 8 7 10 -3 17 -2 17 4 0 6 5 7 10 4 6 -3 10 -1 10 5 0 6
5 8 11 5 6 -4 17 1 25 11 9 11 13 13 9 4 -4 -8 1 -6 9 4 9 11 16 16 16 11 0
-5 7 0 16 11 8 10 12 12 9 4 -4 -8 5 -1 20 15 14 17 24 23 20 15 -4 -8 8 2 25
22 18 22 37 35 43 31 7 -3 9 -3 5 1 -4 5 5 19 20 33 15 14 20 22 12 17 -9 -5
-4 2 10 15 14 13 18 20 10 16 -10 -4 -9 -1 2 8 10 8 15 17 11 20 -3 4 -1 7 6
7 7 0 9 5 6 10 -3 6 -1 10 5 10 6 0 8 5 5 10 -3 6 -1 10 5 10 6 0 8 5 5 10 -3
6 -1 10 5 10 6 0 8 5 5 10 -3 6 -1 10 5 10 7 0 10 7 6 15 -3 8 -1 15 5 15 6 0
9 7 5 15 -3 8 -1 15 5 15 5 0 7 11 3 25 -4 16 -2 25 6 25 7 0 9 8 5 20 -3 11
-3 25 1 31 10 16 11 300 1 306 -5 3 -6 16 -3 29 4 14 2 24 -4 24 -7 0 -9 8 -5
20 4 12 2 20 -5 20 -7 0 -10 7 -6 15 3 8 1 15 -4 15 -5 0 -6 7 -3 17 5 12 3
14 -7 8 -8 -5 -11 -3 -8 6 3 8 -2 20 -11 27 -13 11 -13 12 -1 7 8 -4 4 3 -10
15 -14 12 -18 18 -10 14 8 -4 -1 8 -21 27 -19 19 -24 25 -10 14 14 -11 -1 8
-34 43 -58 61 -82 80 -54 44 8 -10 -3 0 -25 22 -21 23 -35 34 -31 26 4 -8 -3
-4 -15 10 -12 14 -19 18 -15 10 4 -8 -3 -4 -14 9 -12 13 -21 20 -21 15 0 -4
-7 1 -16 12 -8 10 -13 12 -9 4 4 -10 2 -9 -8 2 -8 10 -17 15 -20 11 -4 -3 -7
-1 -7 6 0 7 -4 9 -10 6 -5 -3 -10 -1 -10 5 0 7 -7 10 -15 6 -8 -3 -15 -1 -15
4 0 5 -7 7 -15 4 -8 -4 -15 -1 -15 5 0 6 -7 8 -15 5 -8 -4 -15 -1 -15 6 0 7
-7 10 -15 7 -8 -4 -17 -2 -20 2 -3 5 -14 7 -25 4 -11 -3 -20 0 -20 6 0 7 -9 9
-25 5 -14 -3 -31 -2 -38 3 -6 5 -144 10 -304 12 l-293 3 0 -722z m514 474 c31
5 46 4 46 -4 0 -6 10 -8 25 -4 15 4 25 2 25 -5 0 -6 7 -8 15 -5 8 4 15 1 15
-6 0 -6 5 -8 10 -5 6 3 10 2 10 -4 0 -6 6 -8 14 -5 8 3 24 -5 36 -18 13 -13
20 -16 16 -8 -4 8 2 4 14 -10 12 -14 19 -18 15 -10 -4 8 7 -2 24 -22 18 -21
48 -51 69 -69 20 -17 30 -28 22 -24 -8 4 -4 -3 10 -15 14 -12 18 -19 10 -15
-10 4 -9 2 2 -8 10 -8 15 -17 11 -20 -3 -4 -1 -7 5 -7 6 0 9 -7 5 -17 -5 -12
-3 -14 7 -8 10 6 12 4 7 -8 -4 -10 -2 -17 4 -17 6 0 9 -7 5 -15 -3 -8 -1 -15
5 -15 5 0 7 -11 3 -26 -5 -20 -4 -25 5 -20 9 6 10 -5 5 -43 -4 -35 -3 -51 5
-51 6 0 11 -7 11 -15 0 -8 -5 -15 -11 -15 -8 0 -9 -13 -5 -39 3 -24 2 -42 -4
-46 -6 -4 -8 -15 -5 -26 4 -11 2 -19 -5 -19 -7 0 -9 -8 -5 -20 4 -11 2 -20 -4
-20 -6 0 -8 -7 -5 -15 4 -8 1 -15 -6 -15 -6 0 -8 -4 -5 -10 3 -5 2 -10 -4 -10
-6 0 -8 -7 -5 -15 4 -8 1 -15 -6 -15 -6 0 -8 -4 -5 -10 3 -5 1 -10 -5 -10 -6
0 -9 -4 -6 -9 3 -5 -1 -12 -10 -15 -8 -3 -13 -10 -10 -14 3 -5 -11 -24 -31
-43 -20 -19 -33 -27 -29 -19 4 8 -2 4 -14 -10 -12 -14 -19 -19 -15 -13 4 9 1
11 -9 7 -9 -3 -13 -11 -9 -17 4 -6 0 -8 -10 -4 -10 3 -17 2 -17 -3 0 -5 -7 -7
-15 -4 -8 4 -15 1 -15 -5 0 -7 -9 -9 -25 -5 -14 3 -25 2 -25 -2 0 -5 -92 -10
-205 -12 l-205 -4 0 230 c0 126 -2 245 -5 263 -4 27 -3 30 5 14 7 -14 9 27 8
137 -2 86 1 160 5 164 3 4 4 18 1 30 -4 16 -2 24 6 24 7 0 10 7 6 16 -6 16 48
77 59 66 3 -3 5 0 5 6 0 8 18 10 60 5 48 -5 60 -3 60 8 0 12 2 12 9 0 7 -10
21 -12 55 -7z m312 -136 l29 -33 -32 29 c-31 28 -38 36 -30 36 2 0 16 -15 33
-32z"/>
<path d="M16712 4903 c2 -340 8 -624 12 -631 4 -7 5 -26 1 -42 -4 -20 -3 -30
5 -30 7 0 9 -8 5 -20 -4 -12 -2 -20 5 -20 6 0 8 -5 5 -11 -7 -11 40 -60 49
-51 3 3 6 1 6 -4 0 -5 32 -10 70 -10 42 -1 70 3 70 9 0 6 2 8 6 5 7 -7 61 45
56 55 -2 4 2 7 8 7 7 0 9 7 6 16 -3 9 -3 21 1 27 4 6 7 52 8 102 1 49 5 98 9
108 5 9 5 33 2 52 -5 23 -3 35 4 35 7 0 9 8 5 20 -4 12 -2 20 5 20 7 0 10 7 6
15 -3 8 -1 15 5 15 6 0 7 5 4 10 -3 6 -1 10 5 10 6 0 9 4 6 9 -9 15 28 37 59
35 22 -1 46 -17 93 -64 35 -34 57 -59 50 -55 -7 4 -2 -3 12 -14 14 -11 21 -21
16 -21 -6 0 -1 -7 10 -16 10 -8 12 -13 4 -9 -10 4 -9 2 2 -8 10 -8 15 -17 11
-20 -3 -4 -1 -7 5 -7 6 0 16 -10 23 -21 9 -17 8 -20 -3 -14 -7 3 -5 0 4 -8 10
-8 15 -17 11 -20 -3 -4 -1 -7 6 -7 7 0 9 -4 6 -10 -3 -5 -1 -10 5 -10 6 0 8
-4 5 -10 -3 -5 -1 -10 6 -10 7 0 9 -3 6 -7 -4 -3 1 -12 11 -20 11 -10 12 -12
2 -8 -8 4 -6 -1 4 -9 11 -9 16 -16 12 -16 -5 0 2 -9 15 -21 13 -11 17 -18 9
-14 -8 4 -3 -3 13 -15 15 -12 25 -25 22 -30 -3 -4 3 -14 13 -21 16 -13 16 -12
3 6 -7 11 1 4 19 -15 18 -19 29 -28 26 -20 -5 10 -2 9 7 -2 8 -10 17 -15 20
-11 4 3 7 1 7 -5 0 -6 7 -9 15 -6 8 4 15 2 15 -3 0 -4 33 -8 72 -8 75 0 115
17 96 41 -4 6 -6 19 -2 28 3 9 1 16 -6 16 -6 0 -8 5 -5 10 3 6 2 10 -4 10 -6
0 -7 7 -4 17 5 12 3 14 -7 8 -10 -6 -12 -4 -7 8 3 10 2 17 -4 17 -6 0 -7 5 -4
10 3 6 1 10 -5 10 -6 0 -8 5 -5 10 3 6 1 10 -5 10 -6 0 -8 5 -5 10 3 6 1 10
-5 10 -6 0 -8 5 -5 10 3 6 1 10 -5 10 -6 0 -8 5 -5 10 3 6 1 10 -5 10 -6 0 -8
5 -5 10 3 6 1 10 -5 10 -6 0 -8 5 -5 10 3 6 1 10 -5 10 -6 0 -8 5 -5 10 3 6 1
10 -5 10 -6 0 -8 5 -5 10 3 6 1 10 -5 10 -6 0 -8 5 -5 10 3 6 1 10 -5 10 -6 0
-8 5 -5 10 3 6 1 10 -5 10 -6 0 -8 5 -5 10 3 6 1 10 -5 10 -6 0 -8 5 -5 10 3
6 2 10 -4 10 -6 0 -7 7 -4 17 5 12 3 14 -7 8 -10 -6 -12 -4 -7 8 3 10 2 17 -3
17 -5 0 -7 7 -4 15 4 8 1 15 -5 15 -6 0 -8 7 -5 15 4 8 2 15 -3 15 -5 0 -9 22
-9 49 0 29 4 47 9 44 5 -3 8 0 5 7 -2 7 14 31 37 54 37 37 38 38 5 11 -20 -16
-13 -8 14 19 28 28 44 46 36 42 -8 -4 -4 2 10 14 14 12 18 19 10 15 -8 -4 -7
0 4 9 10 8 15 19 11 25 -3 6 -2 11 4 11 6 0 8 7 5 15 -4 8 -1 15 6 15 7 0 10
7 6 16 -3 9 -3 21 1 27 12 19 13 137 1 137 -6 0 -7 11 -4 25 4 15 2 25 -4 25
-7 0 -9 8 -5 21 5 16 4 19 -6 14 -9 -6 -11 -3 -6 8 3 10 2 17 -3 17 -5 0 -7 6
-4 14 3 8 -4 24 -15 35 -12 12 -18 21 -15 21 3 0 -2 8 -13 18 -10 9 -14 15 -8
12 6 -3 0 5 -14 17 -14 12 -34 32 -44 45 -10 13 -16 16 -12 8 4 -8 -3 -4 -15
10 -12 14 -19 18 -15 10 4 -10 2 -9 -8 2 -8 10 -17 15 -20 11 -4 -3 -7 -1 -7
6 0 7 -4 9 -10 6 -5 -3 -10 -2 -10 4 0 6 -7 8 -15 5 -8 -4 -15 -1 -15 5 0 6
-7 8 -15 5 -8 -4 -15 -1 -15 5 0 6 -7 8 -15 5 -8 -4 -15 -2 -15 4 0 6 -9 8
-20 5 -12 -3 -20 0 -20 7 0 7 -8 9 -19 5 -11 -3 -22 -1 -26 5 -4 6 -20 8 -41
4 -19 -3 -34 -2 -34 2 0 5 -122 10 -271 12 l-271 4 4 -619z m516 354 c6 -5 17
-5 22 -2 6 3 10 1 10 -5 0 -7 7 -9 16 -6 8 3 13 2 10 -3 -5 -8 42 -36 56 -33
3 1 12 -6 20 -16 12 -16 11 -16 -7 -3 -12 8 -10 4 5 -11 14 -13 26 -31 28 -39
2 -8 8 -16 13 -17 5 -2 7 -8 3 -13 -3 -5 -1 -9 4 -9 6 0 8 -8 5 -19 -3 -10 0
-22 6 -25 14 -9 14 -53 1 -61 -5 -3 -7 -12 -3 -20 3 -8 0 -15 -7 -15 -6 0 -8
-4 -5 -10 3 -5 1 -10 -4 -10 -6 0 -11 -6 -11 -13 0 -16 -34 -50 -42 -42 -3 3
-17 -6 -31 -19 -14 -13 -28 -21 -31 -18 -3 3 -6 0 -6 -7 0 -7 -4 -9 -10 -6 -5
3 -10 1 -10 -5 0 -6 -4 -8 -10 -5 -5 3 -10 2 -10 -4 0 -6 -7 -8 -15 -5 -8 4
-15 2 -15 -2 0 -5 -20 -9 -45 -9 -25 0 -45 3 -45 8 0 4 -4 5 -10 2 -5 -3 -10
-1 -10 5 0 6 -5 8 -12 4 -7 -4 -8 -3 -4 5 4 6 0 14 -8 17 -9 3 -13 10 -10 15
3 5 0 9 -6 9 -6 0 -8 5 -5 10 3 6 1 10 -5 10 -7 0 -9 8 -5 20 3 11 2 20 -2 20
-11 0 -9 243 1 259 4 6 4 16 1 21 -3 6 -1 10 6 10 7 0 10 3 6 6 -3 3 1 14 10
23 11 14 29 17 81 16 37 0 73 -4 80 -8z m2 -672 c19 -19 32 -35 29 -35 -3 0
-20 16 -39 35 -19 19 -32 35 -29 35 3 0 20 -16 39 -35z"/>
<path d="M18050 5507 c0 -5 -5 -7 -11 -5 -15 5 -74 -53 -71 -69 2 -7 -2 -13
-8 -13 -6 0 -8 -4 -5 -10 3 -5 1 -10 -5 -10 -7 0 -9 -8 -5 -20 4 -12 2 -20 -5
-20 -8 0 -9 -10 -5 -30 4 -19 3 -30 -5 -30 -7 0 -9 -16 -4 -50 4 -33 3 -50 -4
-50 -7 0 -11 -42 -11 -122 -2 -475 -7 -805 -15 -816 -4 -8 -5 -38 -1 -68 4
-38 3 -54 -5 -54 -8 0 -10 -12 -5 -40 5 -28 3 -40 -5 -40 -8 0 -10 -9 -6 -25
4 -15 2 -25 -4 -25 -7 0 -9 -8 -5 -20 4 -11 2 -20 -4 -20 -6 0 -7 -7 -4 -17 4
-10 2 -14 -4 -10 -6 4 -14 0 -17 -9 -4 -10 -2 -13 7 -8 6 4 3 -2 -8 -13 -11
-11 -23 -19 -27 -16 -5 2 -8 -1 -8 -8 0 -7 -3 -9 -7 -6 -3 4 -12 -1 -20 -11
-9 -10 -12 -11 -7 -2 4 8 3 11 -1 7 -15 -13 -11 -61 5 -75 13 -12 13 -13 0 -6
-8 4 3 -10 25 -32 22 -21 43 -37 48 -36 4 1 7 -2 7 -8 0 -5 7 -6 17 -3 11 4
14 3 9 -5 -5 -8 5 -12 33 -12 23 0 41 5 41 11 0 6 9 8 21 4 16 -5 19 -4 14 6
-6 9 -3 11 8 6 22 -8 49 2 41 15 -4 6 -1 9 7 6 8 -3 20 2 27 11 10 12 11 12 6
1 -4 -8 14 8 42 35 27 28 48 53 46 58 -2 4 2 7 8 7 6 0 8 5 5 10 -3 6 -1 10 5
10 7 0 10 7 6 15 -3 8 -1 15 5 15 6 0 8 9 4 20 -4 12 -2 20 5 20 8 0 9 10 5
29 -4 17 -2 32 5 36 7 4 8 24 4 54 -3 27 -2 51 2 54 5 3 7 243 6 534 -4 632
-5 645 -15 661 -5 7 -6 26 -2 42 4 20 3 30 -5 30 -8 0 -10 9 -6 25 4 14 2 25
-3 25 -6 0 -8 7 -5 15 4 8 1 15 -6 15 -6 0 -9 3 -7 8 2 4 -3 14 -12 22 -17 16
-111 22 -111 7z"/>
<path d="M18910 5508 c0 -5 -3 -8 -7 -6 -10 5 -72 -59 -65 -67 3 -3 0 -5 -7
-5 -7 0 -9 -4 -6 -10 3 -5 1 -10 -5 -10 -6 0 -8 -4 -5 -10 3 -5 2 -10 -4 -10
-6 0 -8 -7 -5 -15 4 -8 1 -15 -6 -15 -6 0 -8 -4 -5 -10 3 -5 2 -10 -4 -10 -6
0 -7 -7 -4 -17 5 -12 3 -14 -7 -8 -10 6 -12 4 -7 -8 3 -10 2 -17 -3 -17 -5 0
-6 -7 -3 -17 5 -12 3 -14 -7 -8 -10 6 -12 4 -7 -8 3 -10 2 -17 -3 -17 -5 0 -7
-7 -4 -15 4 -8 1 -15 -6 -15 -6 0 -8 -4 -5 -10 3 -5 2 -10 -4 -10 -6 0 -8 -7
-5 -15 4 -8 1 -15 -5 -15 -6 0 -8 -7 -4 -17 5 -12 3 -14 -7 -8 -10 6 -12 4 -7
-8 4 -10 2 -17 -4 -17 -6 0 -9 -7 -5 -15 3 -8 1 -15 -4 -15 -5 0 -7 -7 -4 -15
4 -8 1 -15 -6 -15 -6 0 -8 -4 -5 -10 3 -5 1 -10 -5 -10 -7 0 -10 -7 -6 -15 3
-8 1 -15 -4 -15 -5 0 -7 -7 -4 -15 4 -8 1 -15 -5 -15 -6 0 -8 -7 -4 -17 5 -12
3 -14 -7 -8 -10 6 -12 4 -7 -8 4 -10 2 -17 -4 -17 -6 0 -9 -7 -5 -15 3 -8 1
-15 -5 -15 -6 0 -9 -7 -5 -15 3 -8 1 -15 -5 -15 -6 0 -9 -7 -5 -15 3 -8 1 -15
-4 -15 -5 0 -7 -7 -4 -15 4 -8 1 -15 -5 -15 -6 0 -8 -7 -5 -15 4 -8 1 -15 -5
-15 -6 0 -8 -7 -5 -15 4 -8 1 -15 -5 -15 -6 0 -8 -7 -5 -15 4 -8 1 -15 -5 -15
-6 0 -8 -7 -4 -17 5 -12 3 -14 -7 -8 -10 6 -12 4 -7 -8 4 -10 2 -17 -4 -17 -6
0 -9 -7 -5 -15 3 -8 1 -15 -4 -15 -5 0 -7 -7 -4 -15 4 -8 1 -15 -5 -15 -6 0
-8 -7 -5 -15 4 -8 1 -15 -5 -15 -6 0 -8 -7 -4 -17 5 -12 3 -14 -7 -8 -10 6
-12 4 -7 -8 4 -10 2 -17 -4 -17 -6 0 -9 -7 -5 -15 3 -8 1 -15 -5 -15 -6 0 -9
-7 -5 -15 3 -8 1 -15 -4 -15 -5 0 -7 -7 -4 -15 4 -8 1 -15 -5 -15 -6 0 -8 -7
-5 -15 4 -8 1 -15 -5 -15 -6 0 -8 -7 -5 -15 4 -8 1 -15 -5 -15 -6 0 -8 -7 -5
-15 4 -8 1 -15 -5 -15 -6 0 -8 -7 -5 -15 4 -8 1 -15 -6 -15 -7 0 -9 -8 -5 -20
4 -11 2 -20 -4 -20 -6 0 -8 -7 -5 -15 4 -8 1 -15 -6 -15 -8 0 -10 -9 -6 -25 4
-14 2 -25 -4 -25 -5 0 -10 -13 -10 -30 0 -16 5 -30 11 -30 6 0 9 -7 6 -15 -4
-8 -1 -17 5 -21 7 -5 8 -2 4 7 -5 10 -4 10 6 -1 14 -16 118 -22 118 -7 0 5 5
5 10 2 6 -3 10 -1 10 6 0 7 3 9 7 6 3 -4 12 1 20 11 9 10 12 11 7 2 -4 -8 9 1
29 19 37 35 48 51 24 35 -7 -5 -5 -2 5 7 9 9 14 19 11 23 -4 3 -1 6 6 6 8 0
11 7 7 15 -3 8 -1 15 5 15 6 0 9 7 5 15 -3 8 0 15 6 15 6 0 8 3 5 7 -4 3 1 12
11 20 9 8 11 12 5 8 -21 -10 -15 -1 19 31 17 16 28 22 24 14 -5 -9 -2 -8 7 2
8 10 17 15 20 11 4 -3 7 -1 7 6 0 8 7 11 15 7 8 -3 15 -1 15 5 0 6 9 8 20 4
11 -3 20 -2 20 2 0 5 63 9 140 9 77 0 140 -4 140 -9 0 -5 7 -7 15 -3 8 3 15 1
15 -5 0 -6 7 -9 15 -5 8 3 15 0 15 -6 0 -6 2 -9 5 -6 7 7 82 -65 77 -74 -2 -5
1 -8 7 -8 6 0 8 -7 5 -15 -4 -8 -1 -15 5 -15 6 0 8 -7 5 -15 -4 -8 -1 -15 6
-15 6 0 8 -4 5 -10 -3 -5 -1 -10 5 -10 6 0 8 -4 5 -10 -3 -5 -1 -10 5 -10 6 0
9 -4 5 -9 -3 -6 4 -15 15 -21 11 -6 18 -15 15 -21 -4 -5 -2 -8 4 -7 5 2 17 -6
26 -17 9 -11 14 -14 10 -8 -4 9 -1 11 9 7 9 -3 14 -9 12 -13 -2 -3 32 -6 75
-7 43 0 79 4 79 9 0 4 3 6 8 4 4 -3 8 6 8 19 1 13 -2 24 -7 24 -4 0 -6 7 -3
15 4 8 1 15 -5 15 -6 0 -8 7 -5 15 4 8 1 15 -5 15 -6 0 -8 7 -5 15 4 8 1 15
-5 15 -6 0 -8 7 -5 15 4 8 1 15 -6 15 -7 0 -10 7 -6 15 3 8 1 15 -5 15 -6 0
-9 7 -5 15 3 8 1 15 -4 15 -5 0 -7 7 -4 15 4 8 1 15 -5 15 -6 0 -8 7 -5 15 4
8 1 15 -6 15 -7 0 -10 7 -6 15 3 8 1 15 -5 15 -6 0 -9 7 -5 15 3 8 1 15 -4 15
-5 0 -7 7 -4 15 4 8 1 15 -5 15 -6 0 -8 7 -5 15 4 8 1 15 -5 15 -6 0 -8 7 -5
15 4 8 1 15 -5 15 -6 0 -8 7 -5 15 4 8 1 15 -5 15 -6 0 -8 7 -5 15 4 8 1 15
-5 15 -6 0 -8 7 -4 17 5 11 3 14 -6 8 -10 -6 -11 -2 -6 15 5 17 4 21 -6 15 -9
-6 -11 -3 -6 8 4 10 2 17 -4 17 -6 0 -9 7 -5 15 3 8 1 15 -5 15 -6 0 -9 7 -5
15 3 8 1 15 -5 15 -6 0 -9 7 -5 15 3 8 1 15 -4 15 -5 0 -7 7 -4 15 4 8 1 15
-5 15 -6 0 -8 7 -5 15 4 8 1 15 -5 15 -6 0 -8 7 -5 15 4 8 1 15 -5 15 -6 0 -8
7 -4 17 5 11 3 14 -6 8 -10 -6 -11 -2 -6 15 5 17 4 21 -6 15 -9 -6 -11 -3 -6
8 4 10 2 17 -4 17 -6 0 -9 7 -5 15 3 8 1 15 -5 15 -6 0 -9 7 -5 15 3 8 1 15
-4 15 -5 0 -7 7 -4 15 4 8 1 15 -5 15 -6 0 -8 7 -5 15 4 8 1 15 -5 15 -6 0 -8
7 -4 17 5 12 3 14 -7 8 -10 -6 -12 -4 -7 8 4 10 2 17 -4 17 -6 0 -9 7 -5 15 3
8 1 15 -5 15 -6 0 -9 7 -5 15 3 8 1 15 -5 15 -6 0 -9 7 -5 15 3 8 1 15 -4 15
-5 0 -7 7 -4 15 4 8 1 15 -5 15 -6 0 -8 7 -5 15 4 8 1 15 -6 15 -6 0 -8 5 -5
10 3 6 1 10 -5 10 -7 0 -10 7 -6 15 3 8 1 15 -5 15 -6 0 -9 7 -5 15 3 8 1 15
-4 15 -5 0 -7 7 -4 15 4 8 1 15 -6 15 -6 0 -8 5 -4 12 4 6 -1 17 -11 25 -11 7
-16 13 -13 13 3 0 -13 19 -36 43 -22 23 -44 41 -48 39 -5 -2 -8 2 -8 8 0 6 -4
8 -10 5 -5 -3 -10 -2 -10 2 0 5 -25 9 -55 9 -30 1 -55 -3 -55 -8z m98 -528
c17 -16 28 -30 24 -30 -3 0 3 -7 14 -16 10 -8 12 -13 4 -9 -10 4 -9 2 2 -8 10
-8 15 -17 11 -20 -3 -4 -1 -7 5 -7 6 0 9 -7 5 -17 -5 -12 -3 -14 7 -8 10 6 12
4 7 -8 -3 -10 -2 -17 4 -17 6 0 8 -9 4 -20 -4 -11 -2 -20 4 -20 6 0 11 -18 11
-40 0 -23 -5 -40 -11 -40 -6 0 -9 -6 -7 -12 5 -14 -37 -59 -46 -50 -3 3 -6 1
-6 -4 0 -11 -103 -12 -111 -1 -3 5 -15 10 -25 11 -12 2 -18 10 -16 21 2 9 0
15 -5 12 -4 -3 -8 19 -8 49 0 30 4 54 8 54 5 0 5 9 2 20 -4 12 -2 20 5 20 7 0
10 7 6 15 -3 8 -1 15 5 15 6 0 9 7 5 15 -3 8 -1 15 5 15 6 0 9 7 5 15 -3 8 -1
15 5 15 6 0 7 5 4 10 -3 6 -1 10 5 10 6 0 8 5 5 10 -3 6 -1 10 5 10 6 0 9 4 5
9 -4 7 17 28 32 31 1 0 15 -13 31 -30z m242 -645 c13 -14 21 -25 18 -25 -2 0
-15 11 -28 25 -13 14 -21 25 -18 25 2 0 15 -11 28 -25z"/>
<path d="M19840 5507 c0 -4 -3 -6 -7 -4 -5 3 -17 -5 -28 -16 -11 -11 -14 -17
-8 -13 9 5 11 2 7 -8 -3 -9 -11 -13 -17 -9 -6 4 -8 0 -4 -10 3 -10 2 -17 -4
-17 -5 0 -7 -11 -3 -25 4 -16 2 -25 -5 -25 -8 0 -9 -13 -5 -40 4 -24 3 -40 -3
-40 -10 0 -12 -50 -14 -365 -1 -239 8 -579 16 -598 4 -9 4 -33 1 -51 -4 -21
-2 -37 5 -41 6 -4 8 -18 5 -31 -4 -14 -2 -24 4 -24 7 0 9 -8 5 -20 -4 -12 -2
-20 5 -20 6 0 8 -4 5 -10 -3 -5 -1 -10 6 -10 7 0 10 -3 6 -6 -13 -13 26 -37
63 -38 21 -1 37 1 34 6 -5 7 10 12 29 9 5 -1 6 3 2 9 -3 5 -1 10 5 10 6 0 8 5
5 10 -3 6 -2 10 4 10 6 0 8 7 5 15 -4 8 -2 15 4 15 6 0 8 9 5 20 -3 12 0 20 6
20 8 0 10 11 5 35 -4 21 -2 35 4 35 6 0 9 45 8 118 -3 292 6 682 15 676 6 -3
8 -8 5 -12 -3 -3 2 -11 12 -19 11 -10 12 -12 2 -8 -8 4 -4 -3 10 -15 14 -12
18 -19 10 -15 -8 4 -4 -3 10 -15 14 -12 18 -19 10 -15 -8 4 -4 -3 10 -15 14
-12 18 -19 10 -15 -8 4 -4 -3 10 -15 14 -12 18 -19 10 -15 -8 4 -4 -3 10 -15
14 -12 18 -19 10 -15 -8 4 -4 -3 10 -15 14 -12 19 -19 13 -15 -23 11 -14 -6
20 -38 17 -17 25 -27 17 -23 -13 7 -13 6 0 -6 8 -7 16 -20 18 -28 2 -8 15 -26
30 -39 15 -13 20 -20 12 -16 -8 3 -6 -1 4 -9 11 -9 17 -16 13 -16 -3 0 5 -11
19 -25 14 -14 23 -29 20 -34 -3 -5 1 -12 10 -15 9 -4 14 -9 11 -13 -4 -3 1
-12 11 -20 11 -10 12 -12 2 -8 -8 4 -4 -3 10 -15 14 -12 18 -19 10 -15 -8 4
-4 -3 10 -15 14 -12 18 -19 10 -15 -8 4 -4 -3 10 -15 14 -12 18 -19 10 -15 -8
3 -1 -6 15 -20 17 -15 23 -24 15 -20 -8 4 -4 -3 10 -15 14 -12 18 -19 10 -15
-8 4 -4 -3 10 -15 14 -12 18 -19 10 -15 -8 4 -1 -5 15 -20 17 -14 23 -24 15
-20 -8 4 -1 -6 15 -20 17 -15 23 -24 15 -20 -8 4 -1 -6 15 -22 17 -15 24 -24
15 -19 -8 5 11 -14 42 -43 32 -29 69 -67 84 -84 14 -18 23 -26 19 -20 -4 9 -1
11 9 7 9 -3 14 -9 11 -13 -10 -17 66 -4 82 13 13 14 14 17 3 12 -12 -6 -12 -5
1 6 9 7 14 19 11 27 -3 9 0 11 8 6 9 -5 10 -2 5 14 -4 13 -2 21 5 21 7 0 9 8
5 20 -4 12 -2 20 5 20 8 0 9 10 5 29 -4 17 -2 32 5 36 7 4 9 23 4 50 -3 24 -3
49 2 56 10 17 11 820 0 826 -4 3 -5 27 -2 54 4 30 3 50 -4 54 -7 4 -9 19 -5
36 4 19 3 29 -5 29 -7 0 -10 7 -6 15 3 8 1 15 -5 15 -6 0 -9 7 -5 15 3 8 1 15
-5 15 -6 0 -8 4 -5 9 10 15 -26 36 -62 36 -39 0 -91 -40 -83 -64 3 -10 0 -12
-8 -6 -10 5 -11 2 -6 -14 4 -13 2 -21 -5 -21 -8 0 -10 -9 -6 -25 4 -14 3 -31
-1 -38 -9 -14 -11 -93 -12 -465 -1 -201 -4 -281 -12 -277 -5 4 -8 9 -5 13 3 3
-2 11 -12 19 -11 10 -12 12 -2 8 8 -4 4 3 -10 15 -14 12 -18 19 -10 15 8 -4 4
3 -10 15 -14 12 -18 19 -10 15 8 -4 4 3 -10 15 -14 12 -18 19 -10 15 8 -4 4 3
-10 15 -14 12 -18 19 -10 15 8 -4 4 3 -10 15 -14 12 -18 19 -10 15 8 -4 4 3
-10 15 -14 12 -18 19 -10 15 8 -4 4 3 -10 15 -14 12 -18 19 -10 15 8 -4 4 3
-10 15 -14 12 -18 19 -10 15 8 -4 4 3 -10 15 -14 12 -18 19 -10 15 8 -4 4 3
-10 15 -14 12 -18 19 -10 15 8 -4 4 3 -10 15 -14 12 -18 19 -10 15 8 -4 4 3
-10 15 -14 12 -18 19 -10 15 8 -4 4 3 -10 15 -14 12 -18 19 -10 15 8 -4 4 3
-10 15 -14 12 -18 19 -10 15 8 -4 4 3 -10 15 -14 12 -18 19 -10 15 8 -4 4 3
-10 15 -14 12 -18 19 -10 15 8 -4 4 3 -10 15 -14 12 -18 19 -10 15 8 -4 4 3
-10 15 -14 12 -18 19 -10 15 8 -4 2 5 -15 20 -16 14 -23 23 -15 20 8 -4 2 5
-15 20 -16 14 -23 23 -15 20 8 -4 2 5 -15 20 -16 14 -23 23 -15 20 8 -4 -10
17 -41 46 -30 30 -42 43 -25 29 17 -14 6 1 -24 33 -53 56 -77 74 -49 39 8 -10
-1 -2 -20 17 -19 20 -31 29 -27 21 5 -9 2 -8 -7 2 -8 10 -17 15 -20 11 -4 -3
-7 -2 -7 3 0 5 -20 10 -45 10 -25 0 -45 -4 -45 -9z"/>
<path d="M11600 5506 c0 -2 8 -10 18 -17 15 -13 16 -12 3 4 -13 16 -21 21 -21
13z"/>
<path d="M20679 5493 c-13 -16 -12 -17 4 -4 9 7 17 15 17 17 0 8 -8 3 -21 -13z"/>
<path d="M8774 5478 l-19 -23 23 19 c21 18 27 26 19 26 -2 0 -12 -10 -23 -22z"/>
<path d="M18854 5478 l-19 -23 23 19 c21 18 27 26 19 26 -2 0 -12 -10 -23 -22z"/>
<path d="M8990 5487 c0 -2 15 -16 33 -33 l32 -29 -29 33 c-28 30 -36 37 -36
29z"/>
<path d="M19070 5487 c0 -2 15 -16 33 -33 l32 -29 -29 33 c-28 30 -36 37 -36
29z"/>
<path d="M12979 5433 c-13 -16 -12 -17 4 -4 9 7 17 15 17 17 0 8 -8 3 -21 -13z"/>
<path d="M13730 4747 c0 -2 15 -16 33 -33 l32 -29 -29 33 c-28 30 -36 37 -36
29z"/>
<path d="M12439 4183 l-24 -28 28 24 c25 23 32 31 24 31 -2 0 -14 -12 -28 -27z"/>
<path d="M15614 4168 l-29 -33 33 29 c30 28 37 36 29 36 -2 0 -16 -15 -33 -32z"/>
<path d="M20620 4165 c19 -19 36 -35 39 -35 3 0 -10 16 -29 35 -19 19 -36 35
-39 35 -3 0 10 -16 29 -35z"/>
<path d="M16320 4145 c13 -14 26 -25 28 -25 3 0 -5 11 -18 25 -13 14 -26 25
-28 25 -3 0 5 -11 18 -25z"/>
<path d="M16979 4113 c-13 -16 -12 -17 4 -4 16 13 21 21 13 21 -2 0 -10 -8
-17 -17z"/>
<path d="M9849 4103 c-13 -16 -12 -17 4 -4 16 13 21 21 13 21 -2 0 -10 -8 -17
-17z"/>
<path d="M18124 3798 l-29 -33 33 29 c30 28 37 36 29 36 -2 0 -16 -15 -33 -32z"/>
</g>
</svg>
